<svg xmlns="http://www.w3.org/2000/svg" viewBox="0 0 60.2 59"><defs><style>.cls-1{fill:#fff;}</style></defs><title>Asset 2</title><g id="Layer_2" data-name="Layer 2"><g id="about_us"><path class="cls-1" d="M30.09,59C46.72,59,60.2,45.79,60.2,29.51S46.72,0,30.09,0,0,13.21,0,29.51,13.48,59,30.09,59Zm0-55.31c14.53,0,26.34,11.58,26.34,25.82s-11.81,25.8-26.34,25.8S3.77,43.73,3.77,29.51,15.58,3.69,30.09,3.69Z"/><path class="cls-1" d="M30.09,48a3.73,3.73,0,0,0,3.76-3.69V25.82a3.76,3.76,0,0,0-7.51,0V44.26A3.72,3.72,0,0,0,30.09,48Z"/><path class="cls-1" d="M33.85,14.82a3.76,3.76,0,1,1-3.76-3.69,3.7,3.7,0,0,1,3.76,3.69Z"/></g></g></svg>