<svg xmlns="http://www.w3.org/2000/svg" viewBox="0 0 76.29 48.33"><defs><style>.cls-1{fill:#fff;stroke:#fff;stroke-miterlimit:10;stroke-width:0.75px;}</style></defs><title>Asset 3</title><g id="Layer_2" data-name="Layer 2"><g id="accept_transfer"><path class="cls-1" d="M4.82,25.37v9L1.36,30.92a3.35,3.35,0,0,1,3.46-5.55ZM66.64,6.12a3.36,3.36,0,0,0-4.75-4.76L57.13,6.12Zm1.37,34H65.38v2.62h4a1.31,1.31,0,0,0,1.31-1.31V37.5H68ZM21.6,41.65l-2.72-2.72A7.86,7.86,0,0,0,14,34l-3.88-3.88V21.81A1.32,1.32,0,0,1,11.4,20.5a7.87,7.87,0,0,0,7.9-7.84,1.32,1.32,0,0,1,1.32-1.31H51.9L49.28,14H21.85A10.53,10.53,0,0,1,12.72,23v8a10.53,10.53,0,0,1,9.13,9.07h1.29Zm-11.52-.23V39.64l3.09,3.09H11.4A1.32,1.32,0,0,1,10.08,41.42Zm-5.26-16V7.43A1.31,1.31,0,0,1,6.13,6.12h51L54.51,8.74H7.45V27.5L6.12,26.16A3.33,3.33,0,0,0,4.82,25.37Zm54-11.4L61,11.73a1.25,1.25,0,0,1,.4.93,7.87,7.87,0,0,0,7.9,7.84,1.31,1.31,0,0,1,1.31,1.31V32.27a1.31,1.31,0,0,1-1.31,1.31,7.87,7.87,0,0,0-7.9,7.84,1.32,1.32,0,0,1-1.32,1.31H30l2.62-2.62H58.88A10.53,10.53,0,0,1,68,31V23A10.53,10.53,0,0,1,58.88,14ZM68,16.58V14H65.38V11.35h4a1.31,1.31,0,0,1,1.31,1.31v3.92Zm-55.29,0H10.08V12.66a1.32,1.32,0,0,1,1.32-1.31h3.95V14H12.72ZM18.4,48H6.13a1.31,1.31,0,0,1-1.31-1.31V34.37L7.45,37v8.33h8.33ZM75.91,7.43V46.65A1.32,1.32,0,0,1,74.59,48H24.8l2.62-2.62H73.28V8.74H64l2.62-2.62h8A1.32,1.32,0,0,1,75.91,7.43ZM40.36,17.89a9.35,9.35,0,0,1,4.06.94l-2,2a6.68,6.68,0,0,0-2.06-.33A6.56,6.56,0,0,0,33.78,27a6.48,6.48,0,0,0,.35,2.08l-2,2a9,9,0,0,1-1-4.08A9.18,9.18,0,0,1,40.36,17.89Zm6.48,8L49,23.79A9,9,0,0,1,49.58,27a9.21,9.21,0,0,1-12.43,8.57l2.13-2.13a6.38,6.38,0,0,0,1.08.1A6.58,6.58,0,0,0,47,27,5.91,5.91,0,0,0,46.84,25.92Z"/></g></g></svg>