<svg xmlns="http://www.w3.org/2000/svg" viewBox="0 0 60.71 62.62"><defs><style>.cls-1{fill:#fff;}</style></defs><title>Asset 4</title><g id="Layer_2" data-name="Layer 2"><g id="language"><path class="cls-1" d="M60.71,31.31A31.6,31.6,0,0,0,51.82,9.18,29.73,29.73,0,0,0,30.76,0l-.41,0-.41,0a29.72,29.72,0,0,0-21,9.16A31.6,31.6,0,0,0,0,31.31,31.6,31.6,0,0,0,8.89,53.44,29.72,29.72,0,0,0,29.94,62.6l.41,0,.41,0a29.73,29.73,0,0,0,21.06-9.16A31.6,31.6,0,0,0,60.71,31.31Zm-57,1.86H14.3a48.38,48.38,0,0,0,1.68,11H6.68A28.14,28.14,0,0,1,3.67,33.17ZM57,29.45H46.4a47.66,47.66,0,0,0-1.68-11H54A27.89,27.89,0,0,1,57,29.45Zm-14.25,0H32.16v-11H41A43.72,43.72,0,0,1,42.79,29.45ZM32.16,14.73V4.49a19.91,19.91,0,0,1,5.41,6.2,33.92,33.92,0,0,1,2,4ZM28.55,4.49V14.73H21.1a32.48,32.48,0,0,1,2-4A19.91,19.91,0,0,1,28.55,4.49Zm0,14v11H17.91a43.72,43.72,0,0,1,1.84-11Zm-14.25,11H3.67a28,28,0,0,1,3-11H16A48.21,48.21,0,0,0,14.3,29.45Zm3.61,3.72H28.55v11h-8.8A43.87,43.87,0,0,1,17.91,33.17ZM28.55,47.9V58.13a19.91,19.91,0,0,1-5.41-6.2,33.05,33.05,0,0,1-2-4Zm3.61,10.23V47.9h7.45a34.55,34.55,0,0,1-2,4A19.91,19.91,0,0,1,32.16,58.13Zm0-14v-11H42.79a43.87,43.87,0,0,1-1.83,11Zm14.24-11H57a28,28,0,0,1-3,11h-9.3A47.83,47.83,0,0,0,46.4,33.17Zm5.32-18.44H43.51a36.78,36.78,0,0,0-2.87-6,30.15,30.15,0,0,0-2.76-3.9,26.43,26.43,0,0,1,11.38,7A26,26,0,0,1,51.72,14.73ZM22.83,4.84a30.15,30.15,0,0,0-2.76,3.9,36.78,36.78,0,0,0-2.87,6H9a28.37,28.37,0,0,1,2.46-2.92A26.52,26.52,0,0,1,22.83,4.84ZM9,47.9H17.2a37.08,37.08,0,0,0,2.87,6,30.15,30.15,0,0,0,2.76,3.9,26.52,26.52,0,0,1-11.39-7A29.36,29.36,0,0,1,9,47.9Zm28.9,9.88a30.15,30.15,0,0,0,2.76-3.9,37.08,37.08,0,0,0,2.87-6h8.21a26.88,26.88,0,0,1-2.46,2.91A26.43,26.43,0,0,1,37.88,57.78Z"/></g></g></svg>