<svg xmlns="http://www.w3.org/2000/svg" viewBox="0 0 76.25 49.4"><defs><style>.cls-1{fill:#fff;stroke:#fff;stroke-miterlimit:10;stroke-width:0.25px;}</style></defs><title>Asset 1</title><g id="Layer_2" data-name="Layer 2"><g id="contact_us"><path class="cls-1" d="M74.61.13h-73A1.5,1.5,0,0,0,.13,1.64V41.53a7.75,7.75,0,0,0,7.74,7.74H68.38a7.75,7.75,0,0,0,7.74-7.74V1.64A1.5,1.5,0,0,0,74.61.13ZM73.1,41.53a4.72,4.72,0,0,1-4.72,4.71H7.87a4.72,4.72,0,0,1-4.72-4.71V4.94l34,27.85a1.51,1.51,0,0,0,.95.34,1.56,1.56,0,0,0,1-.34L65.4,11.29a1.51,1.51,0,1,0-1.91-2.35L38.13,29.66,5.75,3.15H73.1Z"/></g></g></svg>