<svg xmlns="http://www.w3.org/2000/svg" viewBox="0 0 157.08 157.08"><defs><style>.cls-1{fill:#fff;}</style></defs><title>Asset 3</title><g id="Layer_2" data-name="Layer 2"><g id="Layer_7_copy_2" data-name="Layer 7 copy 2"><rect class="cls-1" x="30.4" y="141.88" width="30.4" height="5.07"/><path class="cls-1" d="M43.07,55.74a22.59,22.59,0,0,0-14,4.8l3.11,4A17.72,17.72,0,0,1,57.07,89.4l4,3.11a22.57,22.57,0,0,0,4.8-14,22.83,22.83,0,0,0-22.8-22.8Z"/><path class="cls-1" d="M29.08,67.68l-4-3.11a22.57,22.57,0,0,0-4.8,14,22.83,22.83,0,0,0,22.8,22.8,22.59,22.59,0,0,0,14-4.8l-3.11-4a17.53,17.53,0,0,1-10.86,3.74A17.75,17.75,0,0,1,25.34,78.54a17.51,17.51,0,0,1,3.74-10.86Z"/><path class="cls-1" d="M149.48,45.6H91.21V12.67A12.69,12.69,0,0,0,78.54,0H12.67A12.68,12.68,0,0,0,0,12.67V144.41a12.68,12.68,0,0,0,12.67,12.67H78.54a12.69,12.69,0,0,0,12.67-12.67V111.48h58.27a7.62,7.62,0,0,0,7.6-7.61V53.2a7.61,7.61,0,0,0-7.6-7.6ZM152,53.2v7.6H70.94V53.2a2.54,2.54,0,0,1,2.53-2.53h76A2.54,2.54,0,0,1,152,53.2ZM65.87,94.49a27.87,27.87,0,1,1,0-31.9ZM12.67,5.07H78.54a7.61,7.61,0,0,1,7.6,7.6V15.2H5.07V12.67a7.61,7.61,0,0,1,7.6-7.6ZM78.54,152H12.67a7.61,7.61,0,0,1-7.6-7.6v-7.6H86.14v7.6a7.61,7.61,0,0,1-7.6,7.6Zm7.6-20.27H5.07V20.27H86.14V45.6H73.47a7.61,7.61,0,0,0-7.6,7.6v1.64a32.94,32.94,0,1,0,0,47.4v1.63a7.62,7.62,0,0,0,7.6,7.61H86.14Zm63.34-25.33h-76a2.54,2.54,0,0,1-2.53-2.54v-38H152v38a2.54,2.54,0,0,1-2.53,2.54Z"/><path class="cls-1" d="M134.28,76a12.54,12.54,0,0,0-6.34,1.76A12.51,12.51,0,0,0,121.61,76a12.67,12.67,0,1,0,0,25.33,12.51,12.51,0,0,0,6.33-1.76,12.54,12.54,0,0,0,6.34,1.76,12.67,12.67,0,0,0,0-25.33Zm-6.34,16.85a7.58,7.58,0,0,1,0-8.37,7.53,7.53,0,0,1,0,8.37ZM114,88.67a7.61,7.61,0,0,1,7.6-7.6,7.52,7.52,0,0,1,2.28.39,12.56,12.56,0,0,0,0,14.43,7.51,7.51,0,0,1-2.28.38,7.61,7.61,0,0,1-7.6-7.6Zm20.27,7.6a7.46,7.46,0,0,1-2.28-.38,12.56,12.56,0,0,0,0-14.43,7.47,7.47,0,0,1,2.28-.39,7.6,7.6,0,0,1,0,15.2Z"/><rect class="cls-1" x="76.01" y="93.74" width="5.07" height="5.07"/><rect class="cls-1" x="86.14" y="93.74" width="5.07" height="5.07"/><rect class="cls-1" x="96.27" y="93.74" width="5.07" height="5.07"/></g></g></svg>