<svg xmlns="http://www.w3.org/2000/svg" xmlns:xlink="http://www.w3.org/1999/xlink" viewBox="0 0 124 80"><defs><style>.cls-1{fill:url(#linear-gradient);}.cls-2{fill:url(#linear-gradient-2);}.cls-3{fill:url(#linear-gradient-3);}</style><linearGradient id="linear-gradient" x1="50.55" y1="-2.85" x2="86.87" y2="18.12" gradientUnits="userSpaceOnUse"><stop offset="0" stop-color="#ed2124"/><stop offset="1" stop-color="#ef5125"/></linearGradient><linearGradient id="linear-gradient-2" x1="22.46" y1="47.72" x2="87.96" y2="85.53" xlink:href="#linear-gradient"/><linearGradient id="linear-gradient-3" x1="17.13" y1="2.71" x2="120.01" y2="62.11" xlink:href="#linear-gradient"/></defs><title>charity_icon</title><g id="Layer_2" data-name="Layer 2"><g id="charities"><path class="cls-1" d="M44.23,12.18A2,2,0,0,0,47,11.42c2.59-4.58,6.84-7.31,11.37-7.31C64.23,4.11,69,10,69,17.2a2,2,0,1,0,4,0c0-7.22,4.77-13.09,10.64-13.09a11.94,11.94,0,0,1,7.23,2.5,2,2,0,0,0,2.83-.42,2.07,2.07,0,0,0-.42-2.87A15.93,15.93,0,0,0,83.69,0C78.3,0,73.58,3.42,71,8.5,68.47,3.42,63.75,0,58.36,0c-6,0-11.56,3.51-14.87,9.38A2.07,2.07,0,0,0,44.23,12.18Z"/><path class="cls-2" d="M94.36,67.15,76.69,74.64a15.76,15.76,0,0,1-11.19.43L24.07,61.2a11,11,0,0,0-7.95.39l-1.64.73a2.06,2.06,0,0,0-1,2.7,2,2,0,0,0,2.66,1.06l1.65-.73a6.94,6.94,0,0,1,5.05-.25L64.23,79a19.69,19.69,0,0,0,6.29,1,19.93,19.93,0,0,0,7.73-1.57l17.66-7.49A2.07,2.07,0,0,0,97,68.25,2,2,0,0,0,94.36,67.15Z"/><path class="cls-3" d="M123.24,48.79v0l0,0a9.56,9.56,0,0,0-10.79-5.64,8.19,8.19,0,0,0-.27-5.56,8,8,0,0,0-4.39-4.4l-.06,0a8,8,0,0,0-10.21,4L91.13,50.57,80.81,54.24a8.87,8.87,0,0,1-6,0l-.29-.1c13-7.36,27-19.88,27-33.15A23.21,23.21,0,0,0,97.92,8.32a2,2,0,0,0-2.8-.6,2.09,2.09,0,0,0-.58,2.85A19.07,19.07,0,0,1,97.5,21C97.5,32.25,84.35,44.26,71,51.41A79.21,79.21,0,0,1,60.7,44.79a64.32,64.32,0,0,1-7.33-6.44L74,45.5a8.32,8.32,0,0,0,10.33-4.62,8.57,8.57,0,0,0,0-6.74,8.31,8.31,0,0,0-4.67-4.55L43.1,15.35c-.26-.11-.55-.22-.9-.34a24.72,24.72,0,0,0-21.86,3L.9,31.22a2.08,2.08,0,0,0-.56,2.85,2,2,0,0,0,2.8.57L22.58,21.48A20.69,20.69,0,0,1,40.89,18.9l.74.27L78.2,33.42a4.32,4.32,0,0,1,2.4,2.35,4.4,4.4,0,0,1,0,3.47,4.3,4.3,0,0,1-5.32,2.38l-23.2-8.06a7.69,7.69,0,0,0-5.66.22,7.91,7.91,0,0,0-4.5,5.3,8.06,8.06,0,0,0,5,9.6l26.58,9.44a12.91,12.91,0,0,0,8.63,0l30.48-10.84a5.51,5.51,0,0,1,6.89,3.09v0a5.67,5.67,0,0,1,0,4.3,5.51,5.51,0,0,1-3,3.05l-16.27,6.9a2.06,2.06,0,0,0-1.09,2.68,2,2,0,0,0,1.87,1.27,2.12,2.12,0,0,0,.77-.16l16.28-6.9a9.58,9.58,0,0,0,5.17-5.29A9.81,9.81,0,0,0,123.24,48.79ZM45.82,40.13a3.84,3.84,0,0,1,1.66-2.29,61.66,61.66,0,0,0,10.8,10.24l.73.54L48.26,44.81A3.93,3.93,0,0,1,45.82,40.13Zm55.32-1.21a4,4,0,0,1,5.07-2h0a4,4,0,0,1,2.18,2.19,4.07,4.07,0,0,1,0,3.12l-1,2.56L96.52,48.66Z"/></g></g></svg>