<svg xmlns="http://www.w3.org/2000/svg" viewBox="0 0 90 82.54"><defs><style>.cls-1{fill:#e6e6e6;}</style></defs><title>Asset 13</title><g id="Layer_2" data-name="Layer 2"><g id="chat"><path class="cls-1" d="M83.68,21.87H81.22V53.36c0,4.9-2.46,9.33-7.38,9.33H25.6v1.5c0,4.33,4.24,8.71,8.59,8.71H71.08l14.11,9.64-2-9.64h.54C88,72.9,90,68.53,90,64.19V29.35C90,25,88,21.87,83.68,21.87Z"/><path class="cls-1" d="M66.64,0h-56C5.67,0,0,5.09,0,10V49.46C0,54,4.81,57.24,9.42,57.74L6.42,71,25.64,57.83h41c4.93,0,9.47-3.47,9.47-8.37V10C76.11,5.09,71.56,0,66.64,0ZM19.15,33.31c-2.79,0-5.06-2.63-5.06-5.88s2.27-5.88,5.06-5.88,5.06,2.63,5.06,5.88S21.94,33.31,19.15,33.31Zm18.91,0c-2.8,0-5.06-2.63-5.06-5.88s2.26-5.88,5.06-5.88,5.06,2.63,5.06,5.88S40.85,33.31,38.06,33.31Zm18.91,0c-2.8,0-5.07-2.63-5.07-5.88s2.27-5.88,5.07-5.88S62,24.18,62,27.43,59.76,33.31,57,33.31Z"/></g></g></svg>