<svg xmlns="http://www.w3.org/2000/svg" xmlns:xlink="http://www.w3.org/1999/xlink" viewBox="0 0 82.38 122.28"><defs><style>.cls-1{fill:none;}.cls-2{clip-path:url(#clip-path);}.cls-3{fill:url(#linear-gradient);}.cls-4{fill:url(#linear-gradient-2);}</style><clipPath id="clip-path" transform="translate(-0.2)"><rect class="cls-1" width="82.8" height="122.28"/></clipPath><linearGradient id="linear-gradient" x1="7.76" y1="51.74" x2="57.38" y2="80.39" gradientUnits="userSpaceOnUse"><stop offset="0" stop-color="#ed2124"/><stop offset="0.52" stop-color="#ed2324"/><stop offset="0.71" stop-color="#ed2a24"/><stop offset="0.84" stop-color="#ee3524"/><stop offset="0.95" stop-color="#ef4625"/><stop offset="1" stop-color="#ef5125"/></linearGradient><linearGradient id="linear-gradient-2" x1="25.11" y1="42.34" x2="74.75" y2="71" gradientUnits="userSpaceOnUse"><stop offset="0" stop-color="#ed2124"/><stop offset="0.01" stop-color="#ed2224"/><stop offset="0.19" stop-color="#ee3724"/><stop offset="0.39" stop-color="#ef4625"/><stop offset="0.63" stop-color="#ef4e25"/><stop offset="1" stop-color="#ef5125"/></linearGradient></defs><title>electricity_icon</title><g id="Layer_2" data-name="Layer 2"><g id="electricity"><g class="cls-2"><path class="cls-3" d="M36.41,112.61a2.38,2.38,0,0,0-3.35.4l-2.9,3.67a2.2,2.2,0,0,1-1.46.81,2.16,2.16,0,0,1-1.6-.45,2.19,2.19,0,0,1-.77-2.21c0-.08,0-.16,0-.24l10-42.74a2.39,2.39,0,0,0-2.32-2.94H7.18A2.19,2.19,0,0,1,5,66.71a2.17,2.17,0,0,1,.6-1.51L5.73,65,44.39,16.37a2.39,2.39,0,0,0-3.75-3L2,62a7,7,0,0,0,5.14,11.7H31l-9.38,40.05c0,.1,0,.21-.05.31a7,7,0,0,0,6.83,8.23,5.73,5.73,0,0,0,.82,0,6.86,6.86,0,0,0,4.65-2.59l2.9-3.67a2.4,2.4,0,0,0-.4-3.36Z" transform="translate(-0.2)"/><path class="cls-4" d="M75.6,48.59H51.73L61.12,8.54c0-.1,0-.21.05-.31a7,7,0,0,0-12.3-5.59l-3,3.84a2.39,2.39,0,1,0,3.75,3l3-3.84a2.18,2.18,0,0,1,3.83,1.85,2,2,0,0,0,0,.24l-10,42.74a2.39,2.39,0,0,0,2.32,2.94H75.6a2.2,2.2,0,0,1,2.2,2.2,2.16,2.16,0,0,1-.61,1.52l-.14.16L38.26,107.08a2.39,2.39,0,0,0,.39,3.35,2.35,2.35,0,0,0,1.48.51A2.4,2.4,0,0,0,42,110L80.74,60.29a7,7,0,0,0-5.14-11.7Z" transform="translate(-0.2)"/></g></g></g></svg>