<svg xmlns="http://www.w3.org/2000/svg" xmlns:xlink="http://www.w3.org/1999/xlink" viewBox="0 0 120.5 87.56"><defs><style>.cls-1{fill:url(#linear-gradient);}</style><linearGradient id="linear-gradient" x1="1.69" y1="9.97" x2="118.81" y2="77.59" gradientUnits="userSpaceOnUse"><stop offset="0" stop-color="#ed2124"/><stop offset="1" stop-color="#ef5125"/></linearGradient></defs><title>gift_icon</title><g id="Layer_2" data-name="Layer 2"><g id="gifts"><path class="cls-1" d="M117.41,66.84a3.1,3.1,0,0,0-3.1,3.1,11.45,11.45,0,0,1-11.43,11.44H17.63A11.46,11.46,0,0,1,6.19,69.94V36.49H21.87l.42,1.17a12.56,12.56,0,0,0,16.85,7.5l4.1-1.65-1.86,4a26.89,26.89,0,0,1-9,11.18,3.09,3.09,0,0,0,1.76,5.64,3.14,3.14,0,0,0,1.75-.54,33,33,0,0,0,11-13.52l1.58-3.38,1.59,3.37A33.27,33.27,0,0,0,61.16,63.8a3.12,3.12,0,0,0,1.75.54,3.09,3.09,0,0,0,1.76-5.64,27.17,27.17,0,0,1-9.05-11.18l-1.88-4,4.12,1.66a13,13,0,0,0,4.81,1,12.82,12.82,0,0,0,12-8.52l.41-1.17h39.18v9.26a3.1,3.1,0,0,0,6.19,0V17.63A17.65,17.65,0,0,0,102.88,0H17.63A17.65,17.65,0,0,0,0,17.63V69.94A17.64,17.64,0,0,0,17.63,87.56h85.25A17.64,17.64,0,0,0,120.5,69.94,3.1,3.1,0,0,0,117.41,66.84ZM43.56,34.65C41.05,37.08,37.41,40,34.34,40a6.6,6.6,0,1,1,0-13.19c3.25,0,7.17,3.34,9.22,5.34l1.29,1.25ZM62.67,40c-3.26,0-7.18-3.34-9.22-5.33l-1.3-1.26,1.3-1.25C56,29.71,59.6,26.8,62.67,26.8a6.6,6.6,0,1,1,0,13.19ZM6.19,17.63A11.45,11.45,0,0,1,17.63,6.19h85.25a11.45,11.45,0,0,1,11.43,11.44V30.3H75.13l-.41-1.16a12.81,12.81,0,0,0-12-8.52c-5,0-9.79,3.55-13,6.54l-1.2,1.12-1.19-1.12c-3.18-3-8-6.54-13-6.54a12.81,12.81,0,0,0-12.05,8.52l-.42,1.16H6.19Z"/></g></g></svg>