<svg xmlns="http://www.w3.org/2000/svg" xmlns:xlink="http://www.w3.org/1999/xlink" viewBox="0 0 124 113"><defs><style>.cls-1{fill:url(#linear-gradient);}.cls-2{fill:url(#linear-gradient-2);}.cls-3{fill:url(#linear-gradient-3);}</style><linearGradient id="linear-gradient" x1="8.07" y1="55.37" x2="115.13" y2="117.18" gradientUnits="userSpaceOnUse"><stop offset="0" stop-color="#ed2124"/><stop offset="1" stop-color="#ef5125"/></linearGradient><linearGradient id="linear-gradient-2" x1="10.27" y1="9.33" x2="113.71" y2="69.05" xlink:href="#linear-gradient"/><linearGradient id="linear-gradient-3" x1="44.08" y1="-1.7" x2="80.73" y2="19.46" xlink:href="#linear-gradient"/></defs><title>government_ser_icon</title><g id="Layer_2" data-name="Layer 2"><g id="government"><path class="cls-1" d="M118.36,62.45a2.73,2.73,0,0,0-2.81,3v38.66a2.74,2.74,0,0,1-2.82,3H11.27a2.74,2.74,0,0,1-2.82-3V65.42a2.73,2.73,0,0,0-2.81-3,2.74,2.74,0,0,0-2.82,3v38.66c0,5,3.66,8.92,8.45,8.92H112.73c4.79,0,8.45-3.87,8.45-8.92V65.42A2.74,2.74,0,0,0,118.36,62.45Z"/><path class="cls-2" d="M115.55,20.82H8.45C3.66,20.82,0,24.68,0,29.74v19a8.84,8.84,0,0,0,6.48,8.62L50.73,67.8v9.52a2.73,2.73,0,0,0,2.82,3h16.9a2.73,2.73,0,0,0,2.82-3V67.8l44.25-10.41A8.84,8.84,0,0,0,124,48.77v-19C124,24.68,120.34,20.82,115.55,20.82ZM67.64,74.34H56.36V62.45H67.64Zm50.72-25.57a2.86,2.86,0,0,1-2.25,3L73.27,61.85V59.47a2.73,2.73,0,0,0-2.82-3H53.55a2.73,2.73,0,0,0-2.82,3v2.38L7.89,51.74a2.86,2.86,0,0,1-2.25-3v-19a2.74,2.74,0,0,1,2.81-3h107.1a2.74,2.74,0,0,1,2.81,3Z"/><path class="cls-3" d="M42.27,14.87a2.74,2.74,0,0,0,2.82-3v-3a2.74,2.74,0,0,1,2.82-3H76.09a2.74,2.74,0,0,1,2.82,3v3a2.82,2.82,0,1,0,5.64,0v-3c0-5-3.67-8.92-8.46-8.92H47.91c-4.79,0-8.46,3.87-8.46,8.92v3A2.74,2.74,0,0,0,42.27,14.87Z"/></g></g></svg>