<svg xmlns="http://www.w3.org/2000/svg" viewBox="0 0 82 82"><defs><style>.cls-1{fill:#e6e6e6;}</style></defs><title>Asset 14</title><g id="Layer_2" data-name="Layer 2"><g id="home"><path class="cls-1" d="M81,35.83,43.45.94a3.66,3.66,0,0,0-4.9,0L1,35.83a3.07,3.07,0,0,0-.76,3.52,3.5,3.5,0,0,0,3.21,2H9.61V78.78A3.36,3.36,0,0,0,13.08,82H68.92a3.36,3.36,0,0,0,3.47-3.22V41.34h6.14a3.5,3.5,0,0,0,3.21-2A3.07,3.07,0,0,0,81,35.83Zm-31.88,36H32.91V54.71a7.15,7.15,0,0,1,7.4-6.88h1.38a7.15,7.15,0,0,1,7.4,6.88V71.78Z"/></g></g></svg>