<svg xmlns="http://www.w3.org/2000/svg" xmlns:xlink="http://www.w3.org/1999/xlink" viewBox="0 0 111.6 111.6"><defs><style>.cls-1{fill:url(#linear-gradient);}.cls-2{fill:url(#linear-gradient-2);}.cls-3{fill:url(#linear-gradient-3);}.cls-4{fill:url(#linear-gradient-4);}.cls-5{fill:url(#linear-gradient-5);}.cls-6{fill:url(#linear-gradient-6);}.cls-7{fill:url(#linear-gradient-7);}.cls-8{fill:url(#linear-gradient-8);}.cls-9{fill:url(#linear-gradient-9);}.cls-10{fill:url(#linear-gradient-10);}.cls-11{fill:url(#linear-gradient-11);}.cls-12{fill:url(#linear-gradient-12);}.cls-13{fill:url(#linear-gradient-13);}.cls-14{fill:url(#linear-gradient-14);}.cls-15{fill:url(#linear-gradient-15);}.cls-16{fill:url(#linear-gradient-16);}.cls-17{fill:url(#linear-gradient-17);}.cls-18{fill:url(#linear-gradient-18);}.cls-19{fill:url(#linear-gradient-19);}.cls-20{fill:url(#linear-gradient-20);}.cls-21{fill:url(#linear-gradient-21);}.cls-22{fill:url(#linear-gradient-22);}.cls-23{fill:url(#linear-gradient-23);}</style><linearGradient id="linear-gradient" x1="62.34" y1="60.16" x2="66.7" y2="60.16" gradientUnits="userSpaceOnUse"><stop offset="0" stop-color="#ed2124"/><stop offset="1" stop-color="#ef5125"/></linearGradient><linearGradient id="linear-gradient-2" x1="14.39" y1="60.16" x2="18.75" y2="60.16" xlink:href="#linear-gradient"/><linearGradient id="linear-gradient-3" x1="0" y1="13.73" x2="27.46" y2="13.73" xlink:href="#linear-gradient"/><linearGradient id="linear-gradient-4" x1="0" y1="97.87" x2="27.46" y2="97.87" xlink:href="#linear-gradient"/><linearGradient id="linear-gradient-5" x1="84.14" y1="97.87" x2="111.6" y2="97.87" xlink:href="#linear-gradient"/><linearGradient id="linear-gradient-6" x1="84.14" y1="13.73" x2="111.6" y2="13.73" xlink:href="#linear-gradient"/><linearGradient id="linear-gradient-7" x1="14.39" y1="84.14" x2="40.54" y2="84.14" xlink:href="#linear-gradient"/><linearGradient id="linear-gradient-8" x1="14.39" y1="27.46" x2="40.54" y2="27.46" xlink:href="#linear-gradient"/><linearGradient id="linear-gradient-9" x1="71.06" y1="27.46" x2="97.22" y2="27.46" xlink:href="#linear-gradient"/><linearGradient id="linear-gradient-10" x1="71.06" y1="84.14" x2="97.22" y2="84.14" xlink:href="#linear-gradient"/><linearGradient id="linear-gradient-11" x1="23.11" y1="84.14" x2="31.82" y2="84.14" xlink:href="#linear-gradient"/><linearGradient id="linear-gradient-12" x1="23.11" y1="27.46" x2="31.82" y2="27.46" xlink:href="#linear-gradient"/><linearGradient id="linear-gradient-13" x1="79.78" y1="27.46" x2="88.5" y2="27.46" xlink:href="#linear-gradient"/><linearGradient id="linear-gradient-14" x1="79.78" y1="84.14" x2="88.5" y2="84.14" xlink:href="#linear-gradient"/><linearGradient id="linear-gradient-15" x1="23.11" y1="66.7" x2="57.98" y2="66.7" xlink:href="#linear-gradient"/><linearGradient id="linear-gradient-16" x1="14.39" y1="51.44" x2="40.54" y2="51.44" xlink:href="#linear-gradient"/><linearGradient id="linear-gradient-17" x1="44.9" y1="51.44" x2="57.98" y2="51.44" xlink:href="#linear-gradient"/><linearGradient id="linear-gradient-18" x1="44.9" y1="34" x2="75.42" y2="34" xlink:href="#linear-gradient"/><linearGradient id="linear-gradient-19" x1="79.78" y1="51.44" x2="97.22" y2="51.44" xlink:href="#linear-gradient"/><linearGradient id="linear-gradient-20" x1="71.06" y1="60.16" x2="97.22" y2="60.16" xlink:href="#linear-gradient"/><linearGradient id="linear-gradient-21" x1="44.9" y1="88.5" x2="57.98" y2="88.5" xlink:href="#linear-gradient"/><linearGradient id="linear-gradient-22" x1="53.62" y1="81.96" x2="66.7" y2="81.96" xlink:href="#linear-gradient"/><linearGradient id="linear-gradient-23" x1="53.62" y1="23.11" x2="66.7" y2="23.11" xlink:href="#linear-gradient"/></defs><title>qr_icon</title><g id="Layer_2" data-name="Layer 2"><g id="Layer_23" data-name="Layer 23"><path class="cls-1" d="M64.52,62.34a2.18,2.18,0,1,0-2.18-2.18,2.19,2.19,0,0,0,2.18,2.18Z"/><path class="cls-2" d="M16.57,62.34a2.18,2.18,0,1,0-2.18-2.18,2.19,2.19,0,0,0,2.18,2.18Z"/><path class="cls-3" d="M2.18,27.46a2.18,2.18,0,0,0,2.18-2.18V4.36H25.28a2.18,2.18,0,0,0,0-4.36H2.18A2.19,2.19,0,0,0,0,2.18v23.1a2.18,2.18,0,0,0,2.18,2.18Z"/><path class="cls-4" d="M27.46,109.42a2.18,2.18,0,0,0-2.18-2.18H4.36V86.32a2.18,2.18,0,0,0-4.36,0v23.1a2.18,2.18,0,0,0,2.18,2.18h23.1a2.17,2.17,0,0,0,2.18-2.18Z"/><path class="cls-5" d="M109.42,84.14a2.18,2.18,0,0,0-2.18,2.18v20.92H86.32a2.18,2.18,0,0,0,0,4.36h23.1a2.17,2.17,0,0,0,2.18-2.18V86.32a2.17,2.17,0,0,0-2.18-2.18Z"/><path class="cls-6" d="M109.42,0H86.32a2.18,2.18,0,1,0,0,4.36h20.92V25.28a2.18,2.18,0,1,0,4.36,0V2.18A2.18,2.18,0,0,0,109.42,0Z"/><path class="cls-7" d="M14.39,95a2.18,2.18,0,0,0,2.18,2.18H38.36A2.18,2.18,0,0,0,40.54,95V73.24a2.17,2.17,0,0,0-2.18-2.18H16.57a2.17,2.17,0,0,0-2.18,2.18Zm4.36-19.62H36.18V92.86H18.75Z"/><path class="cls-8" d="M38.36,14.39H16.57a2.17,2.17,0,0,0-2.18,2.18V38.36a2.17,2.17,0,0,0,2.18,2.18H38.36a2.17,2.17,0,0,0,2.18-2.18V16.57a2.17,2.17,0,0,0-2.18-2.18ZM36.18,36.18H18.75V18.75H36.18Z"/><path class="cls-9" d="M97.22,16.57A2.18,2.18,0,0,0,95,14.39H73.24a2.17,2.17,0,0,0-2.18,2.18V38.36a2.17,2.17,0,0,0,2.18,2.18H95a2.18,2.18,0,0,0,2.18-2.18ZM92.86,36.18H75.42V18.75H92.86Z"/><path class="cls-10" d="M97.22,95V73.24A2.18,2.18,0,0,0,95,71.06H73.24a2.17,2.17,0,0,0-2.18,2.18V95a2.18,2.18,0,0,0,2.18,2.18H95A2.19,2.19,0,0,0,97.22,95Zm-4.36-2.18H75.42V75.42H92.86Z"/><path class="cls-11" d="M29.64,79.78H25.28A2.17,2.17,0,0,0,23.11,82v4.36a2.18,2.18,0,0,0,2.17,2.18h4.36a2.18,2.18,0,0,0,2.18-2.18V82a2.17,2.17,0,0,0-2.18-2.18Z"/><path class="cls-12" d="M25.28,31.82h4.36a2.17,2.17,0,0,0,2.18-2.18V25.28a2.17,2.17,0,0,0-2.18-2.17H25.28a2.17,2.17,0,0,0-2.17,2.17v4.36a2.17,2.17,0,0,0,2.17,2.18Z"/><path class="cls-13" d="M82,31.82h4.36a2.18,2.18,0,0,0,2.18-2.18V25.28a2.18,2.18,0,0,0-2.18-2.17H82a2.17,2.17,0,0,0-2.18,2.17v4.36A2.17,2.17,0,0,0,82,31.82Z"/><path class="cls-14" d="M82,88.5h4.36a2.19,2.19,0,0,0,2.18-2.18V82a2.18,2.18,0,0,0-2.18-2.18H82A2.17,2.17,0,0,0,79.78,82v4.36A2.18,2.18,0,0,0,82,88.5Z"/><path class="cls-15" d="M23.11,60.16a2.18,2.18,0,0,0,2.17,2.18H53.62v10.9a2.18,2.18,0,0,0,4.36,0V60.16A2.19,2.19,0,0,0,55.8,58H25.28a2.18,2.18,0,0,0-2.17,2.18Z"/><path class="cls-16" d="M38.36,53.62a2.18,2.18,0,0,0,0-4.36H16.57a2.18,2.18,0,0,0,0,4.36Z"/><path class="cls-17" d="M47.08,53.62H55.8a2.18,2.18,0,0,0,0-4.36H47.08a2.18,2.18,0,0,0,0,4.36Z"/><path class="cls-18" d="M47.08,14.39a2.18,2.18,0,0,0-2.18,2.18V38.36a2.18,2.18,0,0,0,2.18,2.18H62.34v10.9a2.18,2.18,0,0,0,2.18,2.18h8.72a2.18,2.18,0,1,0,0-4.36H66.7V38.36a2.19,2.19,0,0,0-2.18-2.18H49.26V16.57a2.17,2.17,0,0,0-2.18-2.18Z"/><path class="cls-19" d="M95,49.26H82a2.18,2.18,0,1,0,0,4.36H95a2.18,2.18,0,0,0,0-4.36Z"/><path class="cls-20" d="M95,58H73.24a2.18,2.18,0,1,0,0,4.36H95A2.18,2.18,0,0,0,95,58Z"/><path class="cls-21" d="M55.8,79.78H47.08A2.18,2.18,0,0,0,44.9,82V95a2.18,2.18,0,0,0,4.36,0V84.14H55.8a2.18,2.18,0,1,0,0-4.36Z"/><path class="cls-22" d="M62.34,92.86H55.8a2.18,2.18,0,0,0,0,4.36h8.72A2.19,2.19,0,0,0,66.7,95V68.88a2.18,2.18,0,0,0-4.36,0Z"/><path class="cls-23" d="M64.52,31.82a2.18,2.18,0,0,0,2.18-2.18V16.57a2.18,2.18,0,0,0-4.36,0V27.46H55.8a2.18,2.18,0,0,0,0,4.36Z"/></g></g></svg>