<svg xmlns="http://www.w3.org/2000/svg" xmlns:xlink="http://www.w3.org/1999/xlink" viewBox="0 0 118 108.46"><defs><style>.cls-1{fill:url(#linear-gradient);}.cls-2{fill:url(#linear-gradient-2);}.cls-3{fill:url(#linear-gradient-3);}.cls-4{fill:url(#linear-gradient-4);}</style><linearGradient id="linear-gradient" x1="-3.79" y1="86.46" x2="32.69" y2="107.53" gradientUnits="userSpaceOnUse"><stop offset="0" stop-color="#ed2124"/><stop offset="1" stop-color="#ef5125"/></linearGradient><linearGradient id="linear-gradient-2" x1="2.22" y1="6.28" x2="24.97" y2="19.41" xlink:href="#linear-gradient"/><linearGradient id="linear-gradient-3" x1="85.34" y1="0.87" x2="121.83" y2="21.93" xlink:href="#linear-gradient"/><linearGradient id="linear-gradient-4" x1="92.92" y1="88.98" x2="115.74" y2="102.16" xlink:href="#linear-gradient"/></defs><title>scan_pay_icon</title><g id="Layer_2" data-name="Layer 2"><g id="scan_pay"><path class="cls-1" d="M15.24,108.46H32.15v-7.23H14.94a6.39,6.39,0,0,1-6.63-6.29v-15H0v15C0,102.27,7,108.46,15.24,108.46Z"/><path class="cls-2" d="M32.15,7V0H15.24C6.84,0,0,6,0,13.26v15.3H8.31V13.26A6.4,6.4,0,0,1,14.94,7Z"/><path class="cls-3" d="M109.69,13.26v15.3H118V13.26C118,6,111.27,0,103,0H85.85V7h17A6.58,6.58,0,0,1,109.69,13.26Z"/><path class="cls-4" d="M118,79.9h-8.31v15a6.39,6.39,0,0,1-6.63,6.29H85.85v7.23h17.21c8.24,0,14.94-6.07,14.94-13.52Z"/></g></g></svg>