<svg xmlns="http://www.w3.org/2000/svg" xmlns:xlink="http://www.w3.org/1999/xlink" viewBox="0 0 122 115"><defs><style>.cls-1{fill:url(#linear-gradient);}</style><linearGradient id="linear-gradient" x1="-1.44" y1="27.07" x2="120.36" y2="97.39" gradientUnits="userSpaceOnUse"><stop offset="0" stop-color="#ed2124"/><stop offset="1" stop-color="#ef5125"/></linearGradient></defs><title>Asset 3</title><g id="Layer_2" data-name="Layer 2"><g id="telecom"><path class="cls-1" d="M118.86,84.82,103.69,70.53a11.18,11.18,0,0,0-15.16,0L81.63,77a8.48,8.48,0,0,1-11.49,0L40.26,48.83a7.36,7.36,0,0,1,0-10.83l6.9-6.49a9.7,9.7,0,0,0,0-14.3L32,3A11.2,11.2,0,0,0,16.84,3c-3.13,2.91-4.13,3.85-5.53,5.16a35,35,0,0,0,0,51.55l47.34,44.66a40.36,40.36,0,0,0,54.7,0l5.51-5.2A9.72,9.72,0,0,0,118.86,84.82ZM98.64,75.29l15.17,14.3a3.24,3.24,0,0,1,0,4.76l-2.53,2.39L91.06,77.67l2.52-2.38A3.75,3.75,0,0,1,98.64,75.29ZM26.94,7.73,42.1,22a3.23,3.23,0,0,1,0,4.77l-2.53,2.38-20.2-19,2.51-2.35A3.74,3.74,0,0,1,26.94,7.73ZM63.71,99.55,16.36,54.9a28.4,28.4,0,0,1-2-40l20.15,19a13.8,13.8,0,0,0,.67,19.69L65.09,81.79h0A16,16,0,0,0,86,82.42l20.15,19A32.78,32.78,0,0,1,63.71,99.55Z"/></g></g></svg>