<svg xmlns="http://www.w3.org/2000/svg" xmlns:xlink="http://www.w3.org/1999/xlink" viewBox="0 0 123 130.95"><defs><style>.cls-1{fill:url(#linear-gradient);}</style><linearGradient id="linear-gradient" y1="65.47" x2="123" y2="65.47" gradientUnits="userSpaceOnUse"><stop offset="0" stop-color="#ed2124"/><stop offset="1" stop-color="#ef5125"/></linearGradient></defs><title>transfer_ser_icon</title><g id="Layer_2" data-name="Layer 2"><g id="transfer"><path class="cls-1" d="M61.5,50.77A15.84,15.84,0,1,0,77.44,66.6,15.89,15.89,0,0,0,61.5,50.77Zm0,27.14A11.31,11.31,0,1,1,72.89,66.6,11.35,11.35,0,0,1,61.5,77.91ZM13.67,44h4.55V39.46H11.39a2.27,2.27,0,0,0-2.28,2.26v6.79h4.56Zm0,40.71H9.11v6.78a2.28,2.28,0,0,0,2.28,2.27h6.83V89.22H13.67ZM0,32.68v67.85a2.27,2.27,0,0,0,2.28,2.26H120.72a2.27,2.27,0,0,0,2.28-2.26V32.68a2.28,2.28,0,0,0-2.28-2.27H2.28A2.28,2.28,0,0,0,0,32.68Zm4.56,2.26H118.44V98.27H4.56ZM111.61,55.3A13.64,13.64,0,0,1,97.94,41.72a2.26,2.26,0,0,0-2.27-2.26H27.33a2.26,2.26,0,0,0-2.27,2.26A13.64,13.64,0,0,1,11.39,55.3a2.27,2.27,0,0,0-2.28,2.26V75.65a2.27,2.27,0,0,0,2.28,2.26A13.64,13.64,0,0,1,25.06,91.48a2.27,2.27,0,0,0,2.27,2.27H95.67a2.27,2.27,0,0,0,2.27-2.27,13.64,13.64,0,0,1,13.67-13.57,2.27,2.27,0,0,0,2.28-2.26V57.56a2.27,2.27,0,0,0-2.28-2.26Zm-2.28,18.23a18.2,18.2,0,0,0-15.8,15.69H29.47a18.2,18.2,0,0,0-15.8-15.69V59.68A18.2,18.2,0,0,0,29.47,44H93.53a18.2,18.2,0,0,0,15.8,15.69Zm2.28-34.07h-6.83V44h4.55v4.52h4.56V41.72a2.27,2.27,0,0,0-2.28-2.26Zm-2.28,49.76h-4.55v4.53h6.83a2.28,2.28,0,0,0,2.28-2.27V84.7h-4.56ZM30.75,13.71,33,17.62a57.29,57.29,0,0,1,50.73-3.05l-9.61,4.77,2,4.05,13.66-6.78A2.25,2.25,0,0,0,91,15.3a2.22,2.22,0,0,0-.12-1.73L84.05,0,80,2l3.87,7.69a61.86,61.86,0,0,0-53.09,4ZM90,117.24l-2.28-3.91a57.29,57.29,0,0,1-50.73,3l9.62-4.78-2-4-13.67,6.79a2.27,2.27,0,0,0-1,3L36.69,131l4.07-2-3.87-7.7a61.86,61.86,0,0,0,53.08-4Z"/></g></g></svg>