<svg xmlns="http://www.w3.org/2000/svg" viewBox="0 0 154.99 160"><defs><style>.cls-1{fill:#fff;}</style></defs><title>Asset 1</title><g id="Layer_2" data-name="Layer 2"><g id="Layer_6_copy_2" data-name="Layer 6 copy 2"><path class="cls-1" d="M149.87,93.72h-2.39V72.15h0a10.11,10.11,0,0,0-4.3-8.27h0V60.94a7.73,7.73,0,0,0-7.72-7.73h-1.79l6.84-10a7.39,7.39,0,0,0-1.95-10.26L92.15,1.28a7.39,7.39,0,0,0-10.26,2L41.83,62H30.68l2.69-27.23a.82.82,0,0,1,.5-.68,17.37,17.37,0,0,0,8.46-6.87.78.78,0,0,1,.76-.35l17.48,1.72A2.28,2.28,0,1,0,61,24.08L43.54,22.35a5.34,5.34,0,0,0-5.06,2.44,12.73,12.73,0,0,1-6.21,5.05,5.34,5.34,0,0,0-3.44,4.5L26.1,62H23.19L27.44,19a2.82,2.82,0,0,1,3.09-2.53l35.34,3.49a2.28,2.28,0,1,0,.44-4.54L31,11.88A7.4,7.4,0,0,0,22.9,18.5L19.48,53.21H13.64a7.74,7.74,0,0,0-7.73,7.73v2A10.16,10.16,0,0,0,0,72.15H0v77.72H0A10.15,10.15,0,0,0,10.13,160H137.34a10.15,10.15,0,0,0,10.14-10.13h0V128.3h2.39a5.12,5.12,0,0,0,5.12-5.12V98.84A5.12,5.12,0,0,0,149.87,93.72ZM135.46,57.77a3.17,3.17,0,0,1,3.16,3.17V62.1a10.73,10.73,0,0,0-1.28-.08h-9.67l2.89-4.25Zm-49.8-52a2.76,2.76,0,0,1,1.8-1.19A3.29,3.29,0,0,1,88,4.56a2.81,2.81,0,0,1,1.58.49L136,36.68a2.84,2.84,0,0,1,.74,3.93L122.15,62h-3.5l7.15-10.5a5.32,5.32,0,0,0,.25-5.65A12.78,12.78,0,0,1,124.52,38a5.33,5.33,0,0,0-2.3-5.12L98.16,16.49a5.33,5.33,0,0,0-5.61-.28,12.77,12.77,0,0,1-7.88,1.46A5.39,5.39,0,0,0,79.5,20L50.84,62h-3.5Zm1,38.71A18.81,18.81,0,0,0,67.92,62H56.36L83.27,22.53h0a.8.8,0,0,1,.66-.35H84a17.27,17.27,0,0,0,10.71-2,.8.8,0,0,1,.84.06l24.06,16.39a.81.81,0,0,1,.35.76,17.35,17.35,0,0,0,2.08,10.7.8.8,0,0,1,0,.84L113.13,62H105.4A18.81,18.81,0,0,0,86.66,44.51ZM100.83,62H72.49a14.23,14.23,0,0,1,28.34,0ZM10.47,60.94a3.17,3.17,0,0,1,3.17-3.17H19L18.61,62H10.47ZM4.56,72.15a5.58,5.58,0,0,1,5.57-5.57H137.34a5.58,5.58,0,0,1,5.58,5.57v6.33H4.56ZM142.92,139H31.45a2.28,2.28,0,1,0,0,4.56H142.92v6.33a5.58,5.58,0,0,1-5.58,5.57H10.13a5.58,5.58,0,0,1-5.57-5.57v-6.33H16.85a2.28,2.28,0,0,0,0-4.56H4.56V83H142.92V93.72H121.24a17.32,17.32,0,0,0-15.56,9.74l0,.06-.06.15a15.44,15.44,0,0,0-.86,2.2h0A17.35,17.35,0,0,0,104,111h0a17.31,17.31,0,0,0,17.29,17.29h21.68V139Zm7.52-15.81a.57.57,0,0,1-.57.57H121.24a12.72,12.72,0,0,1-11.19-6.67c-.1-.18-.2-.36-.29-.55-.17-.37-.34-.75-.48-1.14a12.79,12.79,0,0,1,0-8.74c.14-.39.31-.78.48-1.15l.29-.55a12.73,12.73,0,0,1,11.19-6.66h28.63a.57.57,0,0,1,.57.56v24.33Z"/></g></g></svg>