<?xml version="1.0"?>
<svg xmlns="http://www.w3.org/2000/svg" xmlns:xlink="http://www.w3.org/1999/xlink" viewBox="0 0 64 64" width="512" height="512"><defs><linearGradient id="New_Gradient_Swatch_copy" x1="32" y1="62.419" x2="32" y2="0.903" gradientUnits="userSpaceOnUse"><stop offset="0" stop-color="#e93e3a"/><stop offset="0.36" stop-color="#ed683c"/><stop offset="0.716" stop-color="#f3903f"/><stop offset="1" stop-color="#fdc70c"/></linearGradient><linearGradient id="New_Gradient_Swatch_copy-3" x1="13.5" y1="62.419" x2="13.5" y2="0.903" xlink:href="#New_Gradient_Swatch_copy"/><linearGradient id="New_Gradient_Swatch_copy-4" x1="50.5" y1="62.419" x2="50.5" y2="0.903" xlink:href="#New_Gradient_Swatch_copy"/><linearGradient id="New_Gradient_Swatch_copy-6" x1="44" y1="62.419" x2="44" y2="0.903" xlink:href="#New_Gradient_Swatch_copy"/><linearGradient id="New_Gradient_Swatch_copy-7" x1="20" y1="62.419" x2="20" y2="0.903" xlink:href="#New_Gradient_Swatch_copy"/><linearGradient id="New_Gradient_Swatch_copy-8" x1="46" y1="62.419" x2="46" y2="0.903" xlink:href="#New_Gradient_Swatch_copy"/><linearGradient id="New_Gradient_Swatch_copy-10" x1="51" y1="62.419" x2="51" y2="0.903" xlink:href="#New_Gradient_Swatch_copy"/><linearGradient id="New_Gradient_Swatch_copy-11" x1="41" y1="62.419" x2="41" y2="0.903" xlink:href="#New_Gradient_Swatch_copy"/><linearGradient id="New_Gradient_Swatch_copy-12" x1="27" y1="62.419" x2="27" y2="0.903" xlink:href="#New_Gradient_Swatch_copy"/><linearGradient id="New_Gradient_Swatch_copy-13" x1="21" y1="62.419" x2="21" y2="0.903" xlink:href="#New_Gradient_Swatch_copy"/><linearGradient id="New_Gradient_Swatch_copy-14" x1="11" y1="62.419" x2="11" y2="0.903" xlink:href="#New_Gradient_Swatch_copy"/><linearGradient id="New_Gradient_Swatch_copy-15" x1="26" y1="62.419" x2="26" y2="0.903" xlink:href="#New_Gradient_Swatch_copy"/><linearGradient id="New_Gradient_Swatch_copy-16" x1="19" y1="62.419" x2="19" y2="0.903" xlink:href="#New_Gradient_Swatch_copy"/><linearGradient id="New_Gradient_Swatch_copy-17" x1="24" y1="62.419" x2="24" y2="0.903" xlink:href="#New_Gradient_Swatch_copy"/><linearGradient id="New_Gradient_Swatch_copy-18" x1="17" y1="62.419" x2="17" y2="0.903" xlink:href="#New_Gradient_Swatch_copy"/><linearGradient id="New_Gradient_Swatch_copy-19" x1="13" y1="62.419" x2="13" y2="0.903" xlink:href="#New_Gradient_Swatch_copy"/></defs><g id="Money_Bag-3" data-name="Money Bag"><path d="M32,17a8,8,0,1,0,8,8A8.009,8.009,0,0,0,32,17Zm0,14a6,6,0,1,1,6-6A6.006,6.006,0,0,1,32,31Z" style="fill:url(#New_Gradient_Swatch_copy)"/><path d="M56,2H8A3,3,0,0,0,5,5V37a3,3,0,0,0,3,3H37V38H8a1,1,0,0,1-1-1V13a1,1,0,0,1,1-1H56a1,1,0,0,1,1,1V37a1,1,0,0,1-1,1H55v2h1a3,3,0,0,0,3-3V5A3,3,0,0,0,56,2ZM8,4H56a1,1,0,0,1,1,1V6.184A2.966,2.966,0,0,0,56,6H8a2.966,2.966,0,0,0-1,.184V5A1,1,0,0,1,8,4Zm48,6H8a2.966,2.966,0,0,0-1,.184V9A1,1,0,0,1,8,8H56a1,1,0,0,1,1,1v1.184A2.966,2.966,0,0,0,56,10Z" style="fill:url(#New_Gradient_Swatch_copy)"/><path d="M16,16H12a1,1,0,0,0-1,1v4h2V18h3Z" style="fill:url(#New_Gradient_Swatch_copy-3)"/><path d="M53,21V17a1,1,0,0,0-1-1H48v2h3v3Z" style="fill:url(#New_Gradient_Swatch_copy-4)"/><path d="M11,29v4a1,1,0,0,0,1,1h4V32H13V29Z" style="fill:url(#New_Gradient_Swatch_copy-3)"/><rect x="43" y="24" width="2" height="2" style="fill:url(#New_Gradient_Swatch_copy-6)"/><rect x="19" y="24" width="2" height="2" style="fill:url(#New_Gradient_Swatch_copy-7)"/><path d="M52,39.624V38H50.819l2.118-5.649A1,1,0,0,0,52,31a1.924,1.924,0,0,1-1-.368A3.8,3.8,0,0,0,49,30a3.052,3.052,0,0,0-2.252,1.342C46.5,31.619,46.171,32,46,32s-.5-.381-.748-.658A3.052,3.052,0,0,0,43,30a3.8,3.8,0,0,0-2,.632A1.924,1.924,0,0,1,40,31a1,1,0,0,0-.937,1.351L41.181,38H40v1.624A12,12,0,0,0,34,50v5a7.008,7.008,0,0,0,7,7H51a7.008,7.008,0,0,0,7-7V50A12,12,0,0,0,52,39.624ZM41.335,32.713A6.715,6.715,0,0,0,42,32.368,1.924,1.924,0,0,1,43,32c.171,0,.5.381.748.658A3.052,3.052,0,0,0,46,34a3.052,3.052,0,0,0,2.252-1.342C48.5,32.381,48.829,32,49,32a1.924,1.924,0,0,1,1,.368,6.715,6.715,0,0,0,.661.345L48.683,38H43.317ZM56,55a5.006,5.006,0,0,1-5,5H41a5.006,5.006,0,0,1-5-5V50a10.012,10.012,0,0,1,6.21-9.249A4.008,4.008,0,0,0,42,42v1h2V42a2,2,0,0,1,4,0v1h2V42a4.008,4.008,0,0,0-.21-1.249A10.012,10.012,0,0,1,56,50Z" style="fill:url(#New_Gradient_Swatch_copy-8)"/><path d="M46,48a1,1,0,0,1,1,1h2a3,3,0,0,0-2-2.816V45H45v1.184A2.993,2.993,0,0,0,46,52a1,1,0,1,1-1,1H43a3,3,0,0,0,2,2.816V57h2V55.816A2.993,2.993,0,0,0,46,50a1,1,0,0,1,0-2Z" style="fill:url(#New_Gradient_Swatch_copy-8)"/><rect x="50" y="50" width="2" height="2" style="fill:url(#New_Gradient_Swatch_copy-10)"/><rect x="40" y="50" width="2" height="2" style="fill:url(#New_Gradient_Swatch_copy-11)"/><rect x="22" y="44" width="10" height="2" style="fill:url(#New_Gradient_Swatch_copy-12)"/><rect x="14" y="48" width="14" height="2" style="fill:url(#New_Gradient_Swatch_copy-13)"/><rect x="10" y="48" width="2" height="2" style="fill:url(#New_Gradient_Swatch_copy-14)"/><rect x="22" y="52" width="8" height="2" style="fill:url(#New_Gradient_Swatch_copy-15)"/><rect x="18" y="52" width="2" height="2" style="fill:url(#New_Gradient_Swatch_copy-16)"/><rect x="20" y="56" width="8" height="2" style="fill:url(#New_Gradient_Swatch_copy-17)"/><rect x="16" y="56" width="2" height="2" style="fill:url(#New_Gradient_Swatch_copy-18)"/><rect x="12" y="56" width="2" height="2" style="fill:url(#New_Gradient_Swatch_copy-19)"/></g></svg>
