<?xml version="1.0"?>
<svg xmlns="http://www.w3.org/2000/svg" xmlns:xlink="http://www.w3.org/1999/xlink" viewBox="0 0 64 64" width="512" height="512"><defs><linearGradient id="New_Gradient_Swatch_copy" x1="16" y1="56.566" x2="16" y2="6.436" gradientUnits="userSpaceOnUse"><stop offset="0" stop-color="#e93e3a"/><stop offset="0.36" stop-color="#ed683c"/><stop offset="0.716" stop-color="#f3903f"/><stop offset="1" stop-color="#fdc70c"/></linearGradient><linearGradient id="New_Gradient_Swatch_copy-3" x1="48" y1="56.566" x2="48" y2="6.436" xlink:href="#New_Gradient_Swatch_copy"/><linearGradient id="New_Gradient_Swatch_copy-5" x1="32" y1="56.566" x2="32" y2="6.436" xlink:href="#New_Gradient_Swatch_copy"/><linearGradient id="New_Gradient_Swatch_copy-6" x1="38" y1="56.566" x2="38" y2="6.436" xlink:href="#New_Gradient_Swatch_copy"/><linearGradient id="New_Gradient_Swatch_copy-7" x1="26" y1="56.566" x2="26" y2="6.436" xlink:href="#New_Gradient_Swatch_copy"/><linearGradient id="New_Gradient_Swatch_copy-9" x1="12" y1="56.566" x2="12" y2="6.436" xlink:href="#New_Gradient_Swatch_copy"/><linearGradient id="New_Gradient_Swatch_copy-11" x1="52" y1="56.566" x2="52" y2="6.436" xlink:href="#New_Gradient_Swatch_copy"/></defs><g id="Money_Transfer" data-name="Money Transfer"><rect x="13" y="51" width="6" height="2" style="fill:url(#New_Gradient_Swatch_copy)"/><path d="M4,48V14.039c3.4-.018,15.289,0,24,.012V17h2V11a3,3,0,0,0-3-3H5a3,3,0,0,0-3,3V53a3,3,0,0,0,3,3H27a3,3,0,0,0,3-3V48ZM5,10H27a1,1,0,0,1,1,1v1.051c-15.6-.031-21.614-.041-24,.035V11A1,1,0,0,1,5,10ZM27,54H5a1,1,0,0,1-1-1V50H28v3A1,1,0,0,1,27,54Z" style="fill:url(#New_Gradient_Swatch_copy)"/><path d="M59,8H37a3,3,0,0,0-3,3v4h2v-.961c3.4-.018,15.289,0,24,.012V48H36V47H34v6a3,3,0,0,0,3,3H59a3,3,0,0,0,3-3V11A3,3,0,0,0,59,8ZM36,12.086V11a1,1,0,0,1,1-1H59a1,1,0,0,1,1,1v1.051C44.4,12.02,38.386,12.01,36,12.086ZM59,54H37a1,1,0,0,1-1-1V50H60v3A1,1,0,0,1,59,54Z" style="fill:url(#New_Gradient_Swatch_copy-3)"/><rect x="45" y="51" width="6" height="2" style="fill:url(#New_Gradient_Swatch_copy-3)"/><path d="M35,34a3,3,0,0,0-3-3,1,1,0,1,1,1-1h2a3,3,0,0,0-2-2.816V26H31v1.184A2.993,2.993,0,0,0,32,33a1,1,0,1,1-1,1H29a3,3,0,0,0,2,2.816V38h2V36.816A3,3,0,0,0,35,34Z" style="fill:url(#New_Gradient_Swatch_copy-5)"/><path d="M33.475,23.85,35.113,22.7l-1.052-1.5a11,11,0,0,1,.69,21.453l.5,1.938a13,13,0,0,0-.5-25.293l1.1-.773L34.7,16.887l-3.276,2.294a1,1,0,0,0-.246,1.392Z" style="fill:url(#New_Gradient_Swatch_copy-6)"/><path d="M30.525,40.15,28.887,41.3l1.052,1.5a11,11,0,0,1-.69-21.453l-.5-1.938a13,13,0,0,0,.5,25.293l-1.1.773L29.3,47.113l3.276-2.294a1,1,0,0,0,.246-1.392Z" style="fill:url(#New_Gradient_Swatch_copy-7)"/><rect x="15" y="31" width="2" height="2" style="fill:url(#New_Gradient_Swatch_copy)"/><rect x="11" y="31" width="2" height="2" style="fill:url(#New_Gradient_Swatch_copy-9)"/><rect x="47" y="31" width="2" height="2" style="fill:url(#New_Gradient_Swatch_copy-3)"/><rect x="51" y="31" width="2" height="2" style="fill:url(#New_Gradient_Swatch_copy-11)"/></g></svg>
