<svg height="480pt" viewBox="-88 0 480 480" width="480pt" xmlns="http://www.w3.org/2000/svg" xmlns:xlink="http://www.w3.org/1999/xlink"><linearGradient id="a"><stop offset="0" stop-color="#e93e3a"/><stop offset=".35" stop-color="#ed683c"/><stop offset=".7" stop-color="#f3903f"/><stop offset="1" stop-color="#fdc70c"/></linearGradient><linearGradient id="b" gradientUnits="userSpaceOnUse" x1="152" x2="152" xlink:href="#a" y1="487.768" y2="-14.344"/><linearGradient id="c" gradientUnits="userSpaceOnUse" x1="120" x2="120" xlink:href="#a" y1="487.768" y2="-14.344"/><linearGradient id="d" gradientUnits="userSpaceOnUse" x1="80" x2="80" xlink:href="#a" y1="487.768" y2="-14.344"/><linearGradient id="e" gradientUnits="userSpaceOnUse" x1="56" x2="56" xlink:href="#a" y1="487.768" y2="-14.344"/><linearGradient id="f" gradientUnits="userSpaceOnUse" x1="104" x2="104" xlink:href="#a" y1="487.768" y2="-14.344"/><linearGradient id="g" gradientUnits="userSpaceOnUse" x1="144" x2="144" xlink:href="#a" y1="487.768" y2="-14.344"/><linearGradient id="h" gradientUnits="userSpaceOnUse" x1="192" x2="192" xlink:href="#a" y1="487.768" y2="-14.344"/><path d="m292.296875 248.984375-52.296875-52.296875v-172.6875c0-13.253906-10.746094-24-24-24h-192c-13.253906 0-24 10.746094-24 24v320c0 13.253906 10.746094 24 24 24h96v24c.019531 19 13.386719 35.375 32 39.199219v40.800781c0 4.417969 3.582031 8 8 8h136c4.417969 0 8-3.582031 8-8v-194.71875c-.023438-10.605469-4.230469-20.773438-11.703125-28.296875zm-108.871094-.710937c-.082031-.082032-.179687-.128907-.257812-.210938-6.277344-6.042969-16.234375-5.953125-22.398438.203125l-5.601562 5.597656c-8.875 9-13.046875 21.621094-11.273438 34.136719h-127.894531v-208h208v200h-8.800781zm-159.425781-232.273438h192c4.417969 0 8 3.582031 8 8v40h-208v-40c0-4.417969 3.582031-8 8-8zm-8 328v-40h134.03125c1.476562 2.324219 3.1875 4.488281 5.113281 6.457031l36.855469 36.855469v4.6875h-168c-4.417969 0-8-3.582031-8-8zm272 120h-120v-40c0-4.417969-3.582031-8-8-8-13.253906 0-24-10.746094-24-24v-24h56c.027344 22.082031 17.917969 39.972656 40 40v-16c-13.253906 0-24-10.746094-24-24v-24c0-2.121094-.84375-4.15625-2.34375-5.65625l-39.199219-39.199219c-3.429687-3.410156-5.75-7.777343-6.65625-12.527343-1.378906-7.804688 1.097657-15.792969 6.65625-21.441407l5.648438-5.601562 34.078125 34.082031c1.5 1.5 3.535156 2.34375 5.65625 2.34375h20.160156c4.417969 0 8-3.582031 8-8v-68.6875l40.984375 40.984375c4.484375 4.515625 7.003906 10.617187 7.015625 16.984375zm0 0" fill="url(#b)"/><path d="m104 32h32v16h-32zm0 0" fill="url(#c)"/><path d="m104 320h32v16h-32zm0 0" fill="url(#c)"/><path d="m72 32h16v16h-16zm0 0" fill="url(#d)"/><path d="m56 104h-16c-4.417969 0-8 3.582031-8 8v64c0 4.417969 3.582031 8 8 8h16c9.484375.042969 18.097656-5.53125 21.945312-14.199219 3.847657-8.667969 2.207032-18.792969-4.183593-25.800781 6.390625-7.007812 8.03125-17.132812 4.183593-25.800781-3.847656-8.667969-12.460937-14.242188-21.945312-14.199219zm-8 16h8c4.417969 0 8 3.582031 8 8s-3.582031 8-8 8h-8zm8 48h-8v-16h8c4.417969 0 8 3.582031 8 8s-3.582031 8-8 8zm0 0" fill="url(#e)"/><path d="m96 104h16v80h-16zm0 0" fill="url(#f)"/><path d="m144 104h-16v72c0 4.417969 3.582031 8 8 8h24v-16h-16zm0 0" fill="url(#g)"/><path d="m192 104h-16v72c0 4.417969 3.582031 8 8 8h24v-16h-16zm0 0" fill="url(#h)"/></svg>