<?xml version="1.0"?>
<svg xmlns="http://www.w3.org/2000/svg" xmlns:xlink="http://www.w3.org/1999/xlink" viewBox="0 0 64 64" width="512" height="512"><defs><linearGradient id="New_Gradient_Swatch_copy" x1="31" y1="63.318" x2="31" y2="1.194" gradientUnits="userSpaceOnUse"><stop offset="0" stop-color="#e93e3a"/><stop offset="0.36" stop-color="#ed683c"/><stop offset="0.716" stop-color="#f3903f"/><stop offset="1" stop-color="#fdc70c"/></linearGradient><linearGradient id="New_Gradient_Swatch_copy-6" x1="44" y1="63.318" x2="44" y2="1.194" xlink:href="#New_Gradient_Swatch_copy"/><linearGradient id="New_Gradient_Swatch_copy-7" x1="51.5" y1="63.318" x2="51.5" y2="1.194" xlink:href="#New_Gradient_Swatch_copy"/><linearGradient id="New_Gradient_Swatch_copy-8" x1="36" y1="63.318" x2="36" y2="1.194" xlink:href="#New_Gradient_Swatch_copy"/><linearGradient id="New_Gradient_Swatch_copy-9" x1="55" y1="63.318" x2="55" y2="1.194" xlink:href="#New_Gradient_Swatch_copy"/><linearGradient id="New_Gradient_Swatch_copy-10" x1="51" y1="63.318" x2="51" y2="1.194" xlink:href="#New_Gradient_Swatch_copy"/><linearGradient id="New_Gradient_Swatch_copy-11" x1="47" y1="63.318" x2="47" y2="1.194" xlink:href="#New_Gradient_Swatch_copy"/><linearGradient id="New_Gradient_Swatch_copy-12" x1="33" y1="63.318" x2="33" y2="1.194" xlink:href="#New_Gradient_Swatch_copy"/><linearGradient id="New_Gradient_Swatch_copy-13" x1="37" y1="63.318" x2="37" y2="1.194" xlink:href="#New_Gradient_Swatch_copy"/><linearGradient id="New_Gradient_Swatch_copy-14" x1="41" y1="63.318" x2="41" y2="1.194" xlink:href="#New_Gradient_Swatch_copy"/><linearGradient id="New_Gradient_Swatch_copy-16" x1="21" y1="63.318" x2="21" y2="1.194" xlink:href="#New_Gradient_Swatch_copy"/><linearGradient id="New_Gradient_Swatch_copy-17" x1="15" y1="63.318" x2="15" y2="1.194" xlink:href="#New_Gradient_Swatch_copy"/><linearGradient id="New_Gradient_Swatch_copy-18" x1="5" y1="63.318" x2="5" y2="1.194" xlink:href="#New_Gradient_Swatch_copy"/><linearGradient id="New_Gradient_Swatch_copy-19" x1="20" y1="63.318" x2="20" y2="1.194" xlink:href="#New_Gradient_Swatch_copy"/><linearGradient id="New_Gradient_Swatch_copy-20" x1="13" y1="63.318" x2="13" y2="1.194" xlink:href="#New_Gradient_Swatch_copy"/><linearGradient id="New_Gradient_Swatch_copy-21" x1="18" y1="63.318" x2="18" y2="1.194" xlink:href="#New_Gradient_Swatch_copy"/><linearGradient id="New_Gradient_Swatch_copy-22" x1="11" y1="63.318" x2="11" y2="1.194" xlink:href="#New_Gradient_Swatch_copy"/><linearGradient id="New_Gradient_Swatch_copy-23" x1="7" y1="63.318" x2="7" y2="1.194" xlink:href="#New_Gradient_Swatch_copy"/><linearGradient id="New_Gradient_Swatch_copy-25" x1="35" y1="63.318" x2="35" y2="1.194" xlink:href="#New_Gradient_Swatch_copy"/><linearGradient id="New_Gradient_Swatch_copy-26" x1="27" y1="63.318" x2="27" y2="1.194" xlink:href="#New_Gradient_Swatch_copy"/></defs><g id="Money_Transfer-2" data-name="Money Transfer"><path d="M48,57a3,3,0,0,1-3,3H17a3,3,0,0,1-3-3V41H12V57a5.006,5.006,0,0,0,5,5H45a5.006,5.006,0,0,0,5-5V45H48Z" style="fill:url(#New_Gradient_Swatch_copy)"/><path d="M14,7a3,3,0,0,1,3-3H45a3,3,0,0,1,3,3V19h2V7a5.006,5.006,0,0,0-5-5H17a5.006,5.006,0,0,0-5,5V23h2Z" style="fill:url(#New_Gradient_Swatch_copy)"/><path d="M47,19V7a2,2,0,0,0-2-2H39.535a2,2,0,0,0-1.581.775L36.612,7H25.388L24.046,5.775A2,2,0,0,0,22.465,5H17a2,2,0,0,0-2,2V23h2V7h5.465a1.025,1.025,0,0,0,.158.184l1.7,1.554A1,1,0,0,0,25,9H37a1,1,0,0,0,.674-.262l1.7-1.554A1.025,1.025,0,0,0,39.535,7H45V19Z" style="fill:url(#New_Gradient_Swatch_copy)"/><path d="M47,52V45H45v7H17V41H15V52a2,2,0,0,0,2,2H45A2,2,0,0,0,47,52Z" style="fill:url(#New_Gradient_Swatch_copy)"/><rect x="28" y="56" width="6" height="2" style="fill:url(#New_Gradient_Swatch_copy)"/><path d="M57,21H31a3,3,0,0,0-3,3V40a3,3,0,0,0,3,3H57a3,3,0,0,0,3-3V24A3,3,0,0,0,57,21Zm1,19a1,1,0,0,1-1,1H31a1,1,0,0,1-1-1V24a1,1,0,0,1,1-1H57a1,1,0,0,1,1,1Z" style="fill:url(#New_Gradient_Swatch_copy-6)"/><path d="M53,33a2.956,2.956,0,0,0-1.493.421A2.965,2.965,0,0,0,50,33a3,3,0,0,0,0,6,2.965,2.965,0,0,0,1.507-.421A2.956,2.956,0,0,0,53,39a3,3,0,0,0,0-6Zm-3,4a1,1,0,1,1,1-1A1,1,0,0,1,50,37Zm3,0a.956.956,0,0,1-.173-.038,2.761,2.761,0,0,0,0-1.924A.956.956,0,0,1,53,35a1,1,0,0,1,0,2Z" style="fill:url(#New_Gradient_Swatch_copy-7)"/><path d="M33,31h6a1,1,0,0,0,1-1V26a1,1,0,0,0-1-1H33a1,1,0,0,0-1,1v4A1,1,0,0,0,33,31Zm1-4h4v2H34Z" style="fill:url(#New_Gradient_Swatch_copy-8)"/><rect x="54" y="26" width="2" height="4" style="fill:url(#New_Gradient_Swatch_copy-9)"/><rect x="50" y="26" width="2" height="4" style="fill:url(#New_Gradient_Swatch_copy-10)"/><rect x="46" y="26" width="2" height="4" style="fill:url(#New_Gradient_Swatch_copy-11)"/><rect x="32" y="37" width="2" height="2" style="fill:url(#New_Gradient_Swatch_copy-12)"/><rect x="36" y="37" width="2" height="2" style="fill:url(#New_Gradient_Swatch_copy-13)"/><rect x="40" y="37" width="2" height="2" style="fill:url(#New_Gradient_Swatch_copy-14)"/><rect x="32" y="33" width="10" height="2" style="fill:url(#New_Gradient_Swatch_copy-13)"/><rect x="16" y="25" width="10" height="2" style="fill:url(#New_Gradient_Swatch_copy-16)"/><rect x="8" y="29" width="14" height="2" style="fill:url(#New_Gradient_Swatch_copy-17)"/><rect x="4" y="29" width="2" height="2" style="fill:url(#New_Gradient_Swatch_copy-18)"/><rect x="16" y="33" width="8" height="2" style="fill:url(#New_Gradient_Swatch_copy-19)"/><rect x="12" y="33" width="2" height="2" style="fill:url(#New_Gradient_Swatch_copy-20)"/><rect x="14" y="37" width="8" height="2" style="fill:url(#New_Gradient_Swatch_copy-21)"/><rect x="10" y="37" width="2" height="2" style="fill:url(#New_Gradient_Swatch_copy-22)"/><rect x="6" y="37" width="2" height="2" style="fill:url(#New_Gradient_Swatch_copy-23)"/><rect x="30" y="15" width="2" height="2" style="fill:url(#New_Gradient_Swatch_copy)"/><rect x="34" y="15" width="2" height="2" style="fill:url(#New_Gradient_Swatch_copy-25)"/><rect x="26" y="15" width="2" height="2" style="fill:url(#New_Gradient_Swatch_copy-26)"/></g></svg>
