<?xml version="1.0" encoding="iso-8859-1"?>
<!-- Generator: Adobe Illustrator 21.0.0, SVG Export Plug-In . SVG Version: 6.00 Build 0)  -->
<svg version="1.1" id="Capa_1" xmlns="http://www.w3.org/2000/svg" xmlns:xlink="http://www.w3.org/1999/xlink" x="0px" y="0px"
	 viewBox="0 0 992.905 992.905" style="enable-background:new 0 0 992.905 992.905;" xml:space="preserve">
<g>
	<g id="Tablet_Application-16">
		
			<linearGradient id="SVGID_1_" gradientUnits="userSpaceOnUse" x1="-22.059" y1="808.8718" x2="1006.688" y2="808.8718" gradientTransform="matrix(1 0 0 -1 0 990.905)">
			<stop  offset="0" style="stop-color:#FFF33B"/>
			<stop  offset="0.014" style="stop-color:#FEE72E"/>
			<stop  offset="0.042" style="stop-color:#FED51B"/>
			<stop  offset="0.07" style="stop-color:#FDCA10"/>
			<stop  offset="0.1" style="stop-color:#FDC70C"/>
			<stop  offset="0.4" style="stop-color:#F3903F"/>
			<stop  offset="0.8" style="stop-color:#ED683C"/>
			<stop  offset="1" style="stop-color:#E93E3A"/>
		</linearGradient>
		<rect x="744.677" y="165.485" style="fill:url(#SVGID_1_);" width="33.097" height="33.097"/>
		
			<linearGradient id="SVGID_2_" gradientUnits="userSpaceOnUse" x1="-22.059" y1="808.8718" x2="1006.688" y2="808.8718" gradientTransform="matrix(1 0 0 -1 0 990.905)">
			<stop  offset="0" style="stop-color:#FFF33B"/>
			<stop  offset="0.014" style="stop-color:#FEE72E"/>
			<stop  offset="0.042" style="stop-color:#FED51B"/>
			<stop  offset="0.07" style="stop-color:#FDCA10"/>
			<stop  offset="0.1" style="stop-color:#FDC70C"/>
			<stop  offset="0.4" style="stop-color:#F3903F"/>
			<stop  offset="0.8" style="stop-color:#ED683C"/>
			<stop  offset="1" style="stop-color:#E93E3A"/>
		</linearGradient>
		<rect x="678.484" y="165.485" style="fill:url(#SVGID_2_);" width="33.097" height="33.097"/>
		
			<linearGradient id="SVGID_3_" gradientUnits="userSpaceOnUse" x1="-22.059" y1="808.8718" x2="1006.688" y2="808.8718" gradientTransform="matrix(1 0 0 -1 0 990.905)">
			<stop  offset="0" style="stop-color:#FFF33B"/>
			<stop  offset="0.014" style="stop-color:#FEE72E"/>
			<stop  offset="0.042" style="stop-color:#FED51B"/>
			<stop  offset="0.07" style="stop-color:#FDCA10"/>
			<stop  offset="0.1" style="stop-color:#FDC70C"/>
			<stop  offset="0.4" style="stop-color:#F3903F"/>
			<stop  offset="0.8" style="stop-color:#ED683C"/>
			<stop  offset="1" style="stop-color:#E93E3A"/>
		</linearGradient>
		<rect x="612.29" y="165.485" style="fill:url(#SVGID_3_);" width="33.097" height="33.097"/>
		
			<linearGradient id="SVGID_4_" gradientUnits="userSpaceOnUse" x1="-22.059" y1="808.8718" x2="1006.688" y2="808.8718" gradientTransform="matrix(1 0 0 -1 0 990.905)">
			<stop  offset="0" style="stop-color:#FFF33B"/>
			<stop  offset="0.014" style="stop-color:#FEE72E"/>
			<stop  offset="0.042" style="stop-color:#FED51B"/>
			<stop  offset="0.07" style="stop-color:#FDCA10"/>
			<stop  offset="0.1" style="stop-color:#FDC70C"/>
			<stop  offset="0.4" style="stop-color:#F3903F"/>
			<stop  offset="0.8" style="stop-color:#ED683C"/>
			<stop  offset="1" style="stop-color:#E93E3A"/>
		</linearGradient>
		<rect x="215.129" y="165.485" style="fill:url(#SVGID_4_);" width="33.097" height="33.097"/>
		
			<linearGradient id="SVGID_5_" gradientUnits="userSpaceOnUse" x1="-22.059" y1="64.1944" x2="1006.688" y2="64.1944" gradientTransform="matrix(1 0 0 -1 0 990.905)">
			<stop  offset="0" style="stop-color:#FFF33B"/>
			<stop  offset="0.014" style="stop-color:#FEE72E"/>
			<stop  offset="0.042" style="stop-color:#FED51B"/>
			<stop  offset="0.07" style="stop-color:#FDCA10"/>
			<stop  offset="0.1" style="stop-color:#FDC70C"/>
			<stop  offset="0.4" style="stop-color:#F3903F"/>
			<stop  offset="0.8" style="stop-color:#ED683C"/>
			<stop  offset="1" style="stop-color:#E93E3A"/>
		</linearGradient>
		<path style="fill:url(#SVGID_5_);" d="M529.548,910.162h-66.194c-9.139,0-16.548,7.409-16.548,16.548s7.409,16.548,16.548,16.548
			h66.194c9.139,0,16.548-7.409,16.548-16.548S538.688,910.162,529.548,910.162z"/>
		
			<linearGradient id="SVGID_6_" gradientUnits="userSpaceOnUse" x1="-22.059" y1="494.4525" x2="1006.688" y2="494.4525" gradientTransform="matrix(1 0 0 -1 0 990.905)">
			<stop  offset="0" style="stop-color:#FFF33B"/>
			<stop  offset="0.014" style="stop-color:#FEE72E"/>
			<stop  offset="0.042" style="stop-color:#FED51B"/>
			<stop  offset="0.07" style="stop-color:#FDCA10"/>
			<stop  offset="0.1" style="stop-color:#FDC70C"/>
			<stop  offset="0.4" style="stop-color:#F3903F"/>
			<stop  offset="0.8" style="stop-color:#ED683C"/>
			<stop  offset="1" style="stop-color:#E93E3A"/>
		</linearGradient>
		<path style="fill:url(#SVGID_6_);" d="M989.147,452.864c-3.142-3.832-7.836-6.055-12.792-6.057h-89.725l-42.662-73.889V82.743
			C843.913,37.068,806.9,0.056,761.226,0.001H231.677c-45.674,0.055-82.687,37.068-82.742,82.742v248.226h33.097V132.388h628.839
			v183.207l-18.766-32.501c-4.516-7.945-14.619-10.725-22.564-6.209c-7.946,4.516-10.725,14.619-6.209,22.564
			c0.037,0.065,0.074,0.129,0.111,0.193l84.959,147.165H640.952l84.959-147.165c4.516-7.945,1.737-18.048-6.209-22.564
			c-7.87-4.473-17.874-1.793-22.453,6.016l-94.524,163.713H513c-9.139-0.002-16.55,7.406-16.552,16.545
			c0,1.113,0.112,2.223,0.334,3.313l66.194,330.968c1.573,7.706,8.352,13.24,16.217,13.239h231.677v49.645H182.032V728.13h-33.097
			v182.032c0.055,45.674,37.068,82.687,82.742,82.742h529.548c45.674-0.055,82.687-37.068,82.742-82.742v-99.29h66.194
			c7.865,0.002,14.644-5.533,16.217-13.239l66.194-330.968C993.566,461.784,992.308,456.714,989.147,452.864z M182.032,99.291
			V82.743c0-27.418,22.227-49.645,49.645-49.645h529.548c27.418,0,49.645,22.227,49.645,49.645v16.548H182.032z M761.226,959.807
			H231.677c-27.418,0-49.645-22.227-49.645-49.645v-16.548h628.839v16.548C810.871,937.58,788.644,959.807,761.226,959.807z
			 M761.226,479.904h82.742v297.871h-82.742V479.904z M728.129,777.775h-82.742V479.904h82.742V777.775z M533.189,479.904h79.101
			v297.871h-19.527L533.189,479.904z M896.592,777.775h-19.527V479.904h79.101L896.592,777.775z"/>
		
			<linearGradient id="SVGID_7_" gradientUnits="userSpaceOnUse" x1="-22.059" y1="461.3557" x2="1006.688" y2="461.3557" gradientTransform="matrix(1 0 0 -1 0 990.905)">
			<stop  offset="0" style="stop-color:#FFF33B"/>
			<stop  offset="0.014" style="stop-color:#FEE72E"/>
			<stop  offset="0.042" style="stop-color:#FED51B"/>
			<stop  offset="0.07" style="stop-color:#FDCA10"/>
			<stop  offset="0.1" style="stop-color:#FDC70C"/>
			<stop  offset="0.4" style="stop-color:#F3903F"/>
			<stop  offset="0.8" style="stop-color:#ED683C"/>
			<stop  offset="1" style="stop-color:#E93E3A"/>
		</linearGradient>
		<path style="fill:url(#SVGID_7_);" d="M330.968,529.549c0-91.394-74.09-165.484-165.484-165.484S0,438.155,0,529.549
			s74.09,165.484,165.484,165.484C256.836,694.933,330.867,620.902,330.968,529.549z M33.097,529.549
			c0-73.115,59.272-132.387,132.387-132.387s132.387,59.272,132.387,132.387s-59.272,132.387-132.387,132.387
			C92.403,661.854,33.179,602.631,33.097,529.549z"/>
		
			<linearGradient id="SVGID_8_" gradientUnits="userSpaceOnUse" x1="-22.059" y1="461.3557" x2="1006.688" y2="461.3557" gradientTransform="matrix(1 0 0 -1 0 990.905)">
			<stop  offset="0" style="stop-color:#FFF33B"/>
			<stop  offset="0.014" style="stop-color:#FEE72E"/>
			<stop  offset="0.042" style="stop-color:#FED51B"/>
			<stop  offset="0.07" style="stop-color:#FDCA10"/>
			<stop  offset="0.1" style="stop-color:#FDC70C"/>
			<stop  offset="0.4" style="stop-color:#F3903F"/>
			<stop  offset="0.8" style="stop-color:#ED683C"/>
			<stop  offset="1" style="stop-color:#E93E3A"/>
		</linearGradient>
		<path style="fill:url(#SVGID_8_);" d="M182.032,628.84v-19.593c25.801-9.088,39.349-37.37,30.262-63.171
			c-6.992-19.85-25.764-33.115-46.81-33.075c-9.139,0-16.548-7.409-16.548-16.548c0-9.139,7.409-16.548,16.548-16.548
			s16.548,7.409,16.548,16.548h33.097c-0.087-20.963-13.332-39.613-33.097-46.6v-19.593h-33.097v19.593
			c-25.801,9.088-39.349,37.37-30.262,63.171c6.992,19.85,25.764,33.115,46.81,33.075c9.139,0,16.548,7.409,16.548,16.548
			s-7.409,16.548-16.548,16.548s-16.548-7.409-16.548-16.548h-33.097c0.087,20.963,13.332,39.613,33.097,46.6v19.593H182.032z"/>
		
			<linearGradient id="SVGID_9_" gradientUnits="userSpaceOnUse" x1="-22.059" y1="676.4847" x2="1006.688" y2="676.4847" gradientTransform="matrix(1 0 0 -1 0 990.905)">
			<stop  offset="0" style="stop-color:#FFF33B"/>
			<stop  offset="0.014" style="stop-color:#FEE72E"/>
			<stop  offset="0.042" style="stop-color:#FED51B"/>
			<stop  offset="0.07" style="stop-color:#FDCA10"/>
			<stop  offset="0.1" style="stop-color:#FDC70C"/>
			<stop  offset="0.4" style="stop-color:#F3903F"/>
			<stop  offset="0.8" style="stop-color:#ED683C"/>
			<stop  offset="1" style="stop-color:#E93E3A"/>
		</linearGradient>
		<rect x="314.419" y="297.872" style="fill:url(#SVGID_9_);" width="33.097" height="33.097"/>
		
			<linearGradient id="SVGID_10_" gradientUnits="userSpaceOnUse" x1="-22.059" y1="676.4847" x2="1006.688" y2="676.4847" gradientTransform="matrix(1 0 0 -1 0 990.905)">
			<stop  offset="0" style="stop-color:#FFF33B"/>
			<stop  offset="0.014" style="stop-color:#FEE72E"/>
			<stop  offset="0.042" style="stop-color:#FED51B"/>
			<stop  offset="0.07" style="stop-color:#FDCA10"/>
			<stop  offset="0.1" style="stop-color:#FDC70C"/>
			<stop  offset="0.4" style="stop-color:#F3903F"/>
			<stop  offset="0.8" style="stop-color:#ED683C"/>
			<stop  offset="1" style="stop-color:#E93E3A"/>
		</linearGradient>
		<rect x="364.065" y="297.872" style="fill:url(#SVGID_10_);" width="132.387" height="33.097"/>
		
			<linearGradient id="SVGID_11_" gradientUnits="userSpaceOnUse" x1="-22.059" y1="626.8396" x2="1006.688" y2="626.8396" gradientTransform="matrix(1 0 0 -1 0 990.905)">
			<stop  offset="0" style="stop-color:#FFF33B"/>
			<stop  offset="0.014" style="stop-color:#FEE72E"/>
			<stop  offset="0.042" style="stop-color:#FED51B"/>
			<stop  offset="0.07" style="stop-color:#FDCA10"/>
			<stop  offset="0.1" style="stop-color:#FDC70C"/>
			<stop  offset="0.4" style="stop-color:#F3903F"/>
			<stop  offset="0.8" style="stop-color:#ED683C"/>
			<stop  offset="1" style="stop-color:#E93E3A"/>
		</linearGradient>
		<rect x="314.419" y="347.517" style="fill:url(#SVGID_11_);" width="33.097" height="33.097"/>
		
			<linearGradient id="SVGID_12_" gradientUnits="userSpaceOnUse" x1="-22.059" y1="626.8396" x2="1006.688" y2="626.8396" gradientTransform="matrix(1 0 0 -1 0 990.905)">
			<stop  offset="0" style="stop-color:#FFF33B"/>
			<stop  offset="0.014" style="stop-color:#FEE72E"/>
			<stop  offset="0.042" style="stop-color:#FED51B"/>
			<stop  offset="0.07" style="stop-color:#FDCA10"/>
			<stop  offset="0.1" style="stop-color:#FDC70C"/>
			<stop  offset="0.4" style="stop-color:#F3903F"/>
			<stop  offset="0.8" style="stop-color:#ED683C"/>
			<stop  offset="1" style="stop-color:#E93E3A"/>
		</linearGradient>
		<rect x="364.065" y="347.517" style="fill:url(#SVGID_12_);" width="132.387" height="33.097"/>
	</g>
</g>
<g>
</g>
<g>
</g>
<g>
</g>
<g>
</g>
<g>
</g>
<g>
</g>
<g>
</g>
<g>
</g>
<g>
</g>
<g>
</g>
<g>
</g>
<g>
</g>
<g>
</g>
<g>
</g>
<g>
</g>
</svg>
