<?xml version="1.0" encoding="iso-8859-1"?>
<!-- Generator: Adobe Illustrator 21.0.0, SVG Export Plug-In . SVG Version: 6.00 Build 0)  -->
<svg version="1.1" id="Capa_1" xmlns="http://www.w3.org/2000/svg" xmlns:xlink="http://www.w3.org/1999/xlink" x="0px" y="0px"
	 viewBox="0 0 996.2 996.2" style="enable-background:new 0 0 996.2 996.2;" xml:space="preserve">
<g>
	<g id="Tablet_Application-17">
		
			<linearGradient id="SVGID_1_" gradientUnits="userSpaceOnUse" x1="-7.7411" y1="496.1" x2="1021.1549" y2="496.1" gradientTransform="matrix(1 0 0 -1 0 994.2)">
			<stop  offset="0" style="stop-color:#FFF33B"/>
			<stop  offset="0.014" style="stop-color:#FEE72E"/>
			<stop  offset="0.042" style="stop-color:#FED51B"/>
			<stop  offset="0.07" style="stop-color:#FDCA10"/>
			<stop  offset="0.1" style="stop-color:#FDC70C"/>
			<stop  offset="0.4" style="stop-color:#F3903F"/>
			<stop  offset="0.8" style="stop-color:#ED683C"/>
			<stop  offset="1" style="stop-color:#E93E3A"/>
		</linearGradient>
		<path style="fill:url(#SVGID_1_);" d="M979.652,365.713H830.716V84.39c-0.055-45.674-37.068-82.687-82.742-82.742H218.426
			c-45.674,0.055-82.687,37.068-82.742,82.742v148.935h33.097v-99.29h628.839v231.677H417.006c-9.139,0-16.548,7.409-16.548,16.548
			v118.437l-237.585-154.43c3.86-9.603,5.865-19.851,5.908-30.201c0.125-45.825-36.922-83.075-82.747-83.2
			c-45.825-0.125-83.075,36.922-83.2,82.747c-0.125,45.825,36.922,83.075,82.747,83.2c22.293,0.061,43.672-8.851,59.321-24.728
			l241.722,157.11l-241.706,157.21C112.431,654.982,59,654.221,25.575,686.707C-7.85,719.194-8.611,772.626,23.876,806.05
			s85.918,34.185,119.343,1.699c24.442-23.756,32.195-59.882,19.654-91.575l237.585-154.479v118.437
			c0,9.139,7.409,16.548,16.548,16.548h380.613v165.484H168.781v-33.097h-33.097v82.742c0.055,45.674,37.068,82.687,82.742,82.742
			h529.548c45.674-0.055,82.687-37.068,82.742-82.742V696.681h148.935c9.139,0,16.548-7.409,16.548-16.548V382.261
			C996.2,373.122,988.791,365.713,979.652,365.713z M168.781,100.939V84.39c0-27.418,22.227-49.645,49.645-49.645h529.548
			c27.418,0,49.645,22.227,49.645,49.645v16.548H168.781z M86.039,365.713c-27.418,0-49.645-22.227-49.645-49.645
			s22.227-49.645,49.645-49.645s49.645,22.227,49.645,49.645S113.457,365.713,86.039,365.713z M86.039,795.971
			c-27.418,0-49.645-22.227-49.645-49.645c0-27.418,22.227-49.645,49.645-49.645s49.645,22.227,49.645,49.645
			C135.684,773.744,113.457,795.971,86.039,795.971z M797.619,911.81c0,27.418-22.227,49.645-49.645,49.645H218.426
			c-27.418,0-49.645-22.227-49.645-49.645v-16.548h628.839V911.81z M963.103,663.584H433.555V398.81h529.548V663.584z"/>
		
			<linearGradient id="SVGID_2_" gradientUnits="userSpaceOnUse" x1="-7.7411" y1="463.0032" x2="1021.1549" y2="463.0032" gradientTransform="matrix(1 0 0 -1 0 994.2)">
			<stop  offset="0" style="stop-color:#FFF33B"/>
			<stop  offset="0.014" style="stop-color:#FEE72E"/>
			<stop  offset="0.042" style="stop-color:#FED51B"/>
			<stop  offset="0.07" style="stop-color:#FDCA10"/>
			<stop  offset="0.1" style="stop-color:#FDC70C"/>
			<stop  offset="0.4" style="stop-color:#F3903F"/>
			<stop  offset="0.8" style="stop-color:#ED683C"/>
			<stop  offset="1" style="stop-color:#E93E3A"/>
		</linearGradient>
		<path style="fill:url(#SVGID_2_);" d="M698.329,580.842c-9.139,0-16.548-7.409-16.548-16.548s-7.409-16.548-16.548-16.548
			s-16.548,7.409-16.548,16.548c0.087,20.963,13.332,39.613,33.097,46.6v19.593c0,9.139,7.409,16.548,16.548,16.548
			s16.548-7.409,16.548-16.548v-19.593c25.801-9.088,39.349-37.37,30.262-63.171c-6.992-19.85-25.765-33.115-46.81-33.075
			c-9.139,0-16.548-7.409-16.548-16.548c0-9.139,7.409-16.548,16.548-16.548s16.548,7.409,16.548,16.548
			c0,9.139,7.409,16.548,16.548,16.548s16.548-7.409,16.548-16.548c-0.087-20.963-13.332-39.613-33.097-46.6v-19.593
			c0-9.139-7.409-16.548-16.548-16.548s-16.548,7.409-16.548,16.548V451.5c-25.801,9.088-39.349,37.37-30.262,63.171
			c6.992,19.85,25.764,33.115,46.81,33.075c9.139,0,16.548,7.409,16.548,16.548S707.468,580.842,698.329,580.842z"/>
		
			<linearGradient id="SVGID_3_" gradientUnits="userSpaceOnUse" x1="-7.7411" y1="545.7451" x2="1021.1549" y2="545.7451" gradientTransform="matrix(1 0 0 -1 0 994.2)">
			<stop  offset="0" style="stop-color:#FFF33B"/>
			<stop  offset="0.014" style="stop-color:#FEE72E"/>
			<stop  offset="0.042" style="stop-color:#FED51B"/>
			<stop  offset="0.07" style="stop-color:#FDCA10"/>
			<stop  offset="0.1" style="stop-color:#FDC70C"/>
			<stop  offset="0.4" style="stop-color:#F3903F"/>
			<stop  offset="0.8" style="stop-color:#ED683C"/>
			<stop  offset="1" style="stop-color:#E93E3A"/>
		</linearGradient>
		<path style="fill:url(#SVGID_3_);" d="M466.652,481.552c9.139,0,16.548-7.409,16.548-16.548v-16.548h16.548
			c9.139,0,16.548-7.409,16.548-16.548c0-9.139-7.409-16.548-16.548-16.548h-33.097c-9.139,0-16.548,7.409-16.548,16.548v33.097
			C450.103,474.143,457.512,481.552,466.652,481.552z"/>
		
			<linearGradient id="SVGID_4_" gradientUnits="userSpaceOnUse" x1="-7.7411" y1="380.2613" x2="1021.1549" y2="380.2613" gradientTransform="matrix(1 0 0 -1 0 994.2)">
			<stop  offset="0" style="stop-color:#FFF33B"/>
			<stop  offset="0.014" style="stop-color:#FEE72E"/>
			<stop  offset="0.042" style="stop-color:#FED51B"/>
			<stop  offset="0.07" style="stop-color:#FDCA10"/>
			<stop  offset="0.1" style="stop-color:#FDC70C"/>
			<stop  offset="0.4" style="stop-color:#F3903F"/>
			<stop  offset="0.8" style="stop-color:#ED683C"/>
			<stop  offset="1" style="stop-color:#E93E3A"/>
		</linearGradient>
		<path style="fill:url(#SVGID_4_);" d="M466.652,647.035h33.097c9.139,0,16.548-7.409,16.548-16.548s-7.409-16.548-16.548-16.548
			H483.2V597.39c0-9.139-7.409-16.548-16.548-16.548c-9.139,0-16.548,7.409-16.548,16.548v33.097
			C450.103,639.626,457.512,647.035,466.652,647.035z"/>
		
			<linearGradient id="SVGID_5_" gradientUnits="userSpaceOnUse" x1="-7.7411" y1="380.2613" x2="1021.1549" y2="380.2613" gradientTransform="matrix(1 0 0 -1 0 994.2)">
			<stop  offset="0" style="stop-color:#FFF33B"/>
			<stop  offset="0.014" style="stop-color:#FEE72E"/>
			<stop  offset="0.042" style="stop-color:#FED51B"/>
			<stop  offset="0.07" style="stop-color:#FDCA10"/>
			<stop  offset="0.1" style="stop-color:#FDC70C"/>
			<stop  offset="0.4" style="stop-color:#F3903F"/>
			<stop  offset="0.8" style="stop-color:#ED683C"/>
			<stop  offset="1" style="stop-color:#E93E3A"/>
		</linearGradient>
		<path style="fill:url(#SVGID_5_);" d="M896.91,647.035h33.097c9.139,0,16.548-7.409,16.548-16.548V597.39
			c0-9.139-7.409-16.548-16.548-16.548c-9.139,0-16.548,7.409-16.548,16.548v16.548H896.91c-9.139,0-16.548,7.409-16.548,16.548
			S887.77,647.035,896.91,647.035z"/>
		
			<linearGradient id="SVGID_6_" gradientUnits="userSpaceOnUse" x1="-7.7411" y1="545.7451" x2="1021.1549" y2="545.7451" gradientTransform="matrix(1 0 0 -1 0 994.2)">
			<stop  offset="0" style="stop-color:#FFF33B"/>
			<stop  offset="0.014" style="stop-color:#FEE72E"/>
			<stop  offset="0.042" style="stop-color:#FED51B"/>
			<stop  offset="0.07" style="stop-color:#FDCA10"/>
			<stop  offset="0.1" style="stop-color:#FDC70C"/>
			<stop  offset="0.4" style="stop-color:#F3903F"/>
			<stop  offset="0.8" style="stop-color:#ED683C"/>
			<stop  offset="1" style="stop-color:#E93E3A"/>
		</linearGradient>
		<path style="fill:url(#SVGID_6_);" d="M896.91,448.455h16.548v16.548c0,9.139,7.409,16.548,16.548,16.548
			c9.139,0,16.548-7.409,16.548-16.548v-33.097c0-9.139-7.409-16.548-16.548-16.548H896.91c-9.139,0-16.548,7.409-16.548,16.548
			C880.361,441.046,887.77,448.455,896.91,448.455z"/>
		
			<linearGradient id="SVGID_7_" gradientUnits="userSpaceOnUse" x1="-7.7411" y1="810.5193" x2="1021.1549" y2="810.5193" gradientTransform="matrix(1 0 0 -1 0 994.2)">
			<stop  offset="0" style="stop-color:#FFF33B"/>
			<stop  offset="0.014" style="stop-color:#FEE72E"/>
			<stop  offset="0.042" style="stop-color:#FED51B"/>
			<stop  offset="0.07" style="stop-color:#FDCA10"/>
			<stop  offset="0.1" style="stop-color:#FDC70C"/>
			<stop  offset="0.4" style="stop-color:#F3903F"/>
			<stop  offset="0.8" style="stop-color:#ED683C"/>
			<stop  offset="1" style="stop-color:#E93E3A"/>
		</linearGradient>
		<rect x="747.974" y="167.132" style="fill:url(#SVGID_7_);" width="33.097" height="33.097"/>
		
			<linearGradient id="SVGID_8_" gradientUnits="userSpaceOnUse" x1="-7.7411" y1="810.5193" x2="1021.1549" y2="810.5193" gradientTransform="matrix(1 0 0 -1 0 994.2)">
			<stop  offset="0" style="stop-color:#FFF33B"/>
			<stop  offset="0.014" style="stop-color:#FEE72E"/>
			<stop  offset="0.042" style="stop-color:#FED51B"/>
			<stop  offset="0.07" style="stop-color:#FDCA10"/>
			<stop  offset="0.1" style="stop-color:#FDC70C"/>
			<stop  offset="0.4" style="stop-color:#F3903F"/>
			<stop  offset="0.8" style="stop-color:#ED683C"/>
			<stop  offset="1" style="stop-color:#E93E3A"/>
		</linearGradient>
		<rect x="681.781" y="167.132" style="fill:url(#SVGID_8_);" width="33.097" height="33.097"/>
		
			<linearGradient id="SVGID_9_" gradientUnits="userSpaceOnUse" x1="-7.7411" y1="810.5193" x2="1021.1549" y2="810.5193" gradientTransform="matrix(1 0 0 -1 0 994.2)">
			<stop  offset="0" style="stop-color:#FFF33B"/>
			<stop  offset="0.014" style="stop-color:#FEE72E"/>
			<stop  offset="0.042" style="stop-color:#FED51B"/>
			<stop  offset="0.07" style="stop-color:#FDCA10"/>
			<stop  offset="0.1" style="stop-color:#FDC70C"/>
			<stop  offset="0.4" style="stop-color:#F3903F"/>
			<stop  offset="0.8" style="stop-color:#ED683C"/>
			<stop  offset="1" style="stop-color:#E93E3A"/>
		</linearGradient>
		<rect x="615.587" y="167.132" style="fill:url(#SVGID_9_);" width="33.097" height="33.097"/>
		
			<linearGradient id="SVGID_10_" gradientUnits="userSpaceOnUse" x1="-7.7411" y1="810.5193" x2="1021.1549" y2="810.5193" gradientTransform="matrix(1 0 0 -1 0 994.2)">
			<stop  offset="0" style="stop-color:#FFF33B"/>
			<stop  offset="0.014" style="stop-color:#FEE72E"/>
			<stop  offset="0.042" style="stop-color:#FED51B"/>
			<stop  offset="0.07" style="stop-color:#FDCA10"/>
			<stop  offset="0.1" style="stop-color:#FDC70C"/>
			<stop  offset="0.4" style="stop-color:#F3903F"/>
			<stop  offset="0.8" style="stop-color:#ED683C"/>
			<stop  offset="1" style="stop-color:#E93E3A"/>
		</linearGradient>
		<rect x="218.426" y="167.132" style="fill:url(#SVGID_10_);" width="33.097" height="33.097"/>
		
			<linearGradient id="SVGID_11_" gradientUnits="userSpaceOnUse" x1="-7.7411" y1="65.8419" x2="1021.1549" y2="65.8419" gradientTransform="matrix(1 0 0 -1 0 994.2)">
			<stop  offset="0" style="stop-color:#FFF33B"/>
			<stop  offset="0.014" style="stop-color:#FEE72E"/>
			<stop  offset="0.042" style="stop-color:#FED51B"/>
			<stop  offset="0.07" style="stop-color:#FDCA10"/>
			<stop  offset="0.1" style="stop-color:#FDC70C"/>
			<stop  offset="0.4" style="stop-color:#F3903F"/>
			<stop  offset="0.8" style="stop-color:#ED683C"/>
			<stop  offset="1" style="stop-color:#E93E3A"/>
		</linearGradient>
		<path style="fill:url(#SVGID_11_);" d="M466.652,944.906h66.194c9.139,0,16.548-7.409,16.548-16.548s-7.409-16.548-16.548-16.548
			h-66.194c-9.139,0-16.548,7.409-16.548,16.548S457.512,944.906,466.652,944.906z"/>
		
			<linearGradient id="SVGID_12_" gradientUnits="userSpaceOnUse" x1="-7.7411" y1="678.1322" x2="1021.1549" y2="678.1322" gradientTransform="matrix(1 0 0 -1 0 994.2)">
			<stop  offset="0" style="stop-color:#FFF33B"/>
			<stop  offset="0.014" style="stop-color:#FEE72E"/>
			<stop  offset="0.042" style="stop-color:#FED51B"/>
			<stop  offset="0.07" style="stop-color:#FDCA10"/>
			<stop  offset="0.1" style="stop-color:#FDC70C"/>
			<stop  offset="0.4" style="stop-color:#F3903F"/>
			<stop  offset="0.8" style="stop-color:#ED683C"/>
			<stop  offset="1" style="stop-color:#E93E3A"/>
		</linearGradient>
		<rect x="201.877" y="299.519" style="fill:url(#SVGID_12_);" width="33.097" height="33.097"/>
		
			<linearGradient id="SVGID_13_" gradientUnits="userSpaceOnUse" x1="-7.7411" y1="678.1322" x2="1021.1549" y2="678.1322" gradientTransform="matrix(1 0 0 -1 0 994.2)">
			<stop  offset="0" style="stop-color:#FFF33B"/>
			<stop  offset="0.014" style="stop-color:#FEE72E"/>
			<stop  offset="0.042" style="stop-color:#FED51B"/>
			<stop  offset="0.07" style="stop-color:#FDCA10"/>
			<stop  offset="0.1" style="stop-color:#FDC70C"/>
			<stop  offset="0.4" style="stop-color:#F3903F"/>
			<stop  offset="0.8" style="stop-color:#ED683C"/>
			<stop  offset="1" style="stop-color:#E93E3A"/>
		</linearGradient>
		<rect x="251.523" y="299.519" style="fill:url(#SVGID_13_);" width="132.387" height="33.097"/>
		
			<linearGradient id="SVGID_14_" gradientUnits="userSpaceOnUse" x1="-7.7411" y1="727.7774" x2="1021.1549" y2="727.7774" gradientTransform="matrix(1 0 0 -1 0 994.2)">
			<stop  offset="0" style="stop-color:#FFF33B"/>
			<stop  offset="0.014" style="stop-color:#FEE72E"/>
			<stop  offset="0.042" style="stop-color:#FED51B"/>
			<stop  offset="0.07" style="stop-color:#FDCA10"/>
			<stop  offset="0.1" style="stop-color:#FDC70C"/>
			<stop  offset="0.4" style="stop-color:#F3903F"/>
			<stop  offset="0.8" style="stop-color:#ED683C"/>
			<stop  offset="1" style="stop-color:#E93E3A"/>
		</linearGradient>
		<rect x="201.877" y="249.874" style="fill:url(#SVGID_14_);" width="33.097" height="33.097"/>
		
			<linearGradient id="SVGID_15_" gradientUnits="userSpaceOnUse" x1="-7.7411" y1="727.7774" x2="1021.1549" y2="727.7774" gradientTransform="matrix(1 0 0 -1 0 994.2)">
			<stop  offset="0" style="stop-color:#FFF33B"/>
			<stop  offset="0.014" style="stop-color:#FEE72E"/>
			<stop  offset="0.042" style="stop-color:#FED51B"/>
			<stop  offset="0.07" style="stop-color:#FDCA10"/>
			<stop  offset="0.1" style="stop-color:#FDC70C"/>
			<stop  offset="0.4" style="stop-color:#F3903F"/>
			<stop  offset="0.8" style="stop-color:#ED683C"/>
			<stop  offset="1" style="stop-color:#E93E3A"/>
		</linearGradient>
		<rect x="251.523" y="249.874" style="fill:url(#SVGID_15_);" width="132.387" height="33.097"/>
		
			<linearGradient id="SVGID_16_" gradientUnits="userSpaceOnUse" x1="-7.7411" y1="198.229" x2="1021.1549" y2="198.229" gradientTransform="matrix(1 0 0 -1 0 994.2)">
			<stop  offset="0" style="stop-color:#FFF33B"/>
			<stop  offset="0.014" style="stop-color:#FEE72E"/>
			<stop  offset="0.042" style="stop-color:#FED51B"/>
			<stop  offset="0.07" style="stop-color:#FDCA10"/>
			<stop  offset="0.1" style="stop-color:#FDC70C"/>
			<stop  offset="0.4" style="stop-color:#F3903F"/>
			<stop  offset="0.8" style="stop-color:#ED683C"/>
			<stop  offset="1" style="stop-color:#E93E3A"/>
		</linearGradient>
		<rect x="201.877" y="779.423" style="fill:url(#SVGID_16_);" width="33.097" height="33.097"/>
		
			<linearGradient id="SVGID_17_" gradientUnits="userSpaceOnUse" x1="-7.7411" y1="198.229" x2="1021.1549" y2="198.229" gradientTransform="matrix(1 0 0 -1 0 994.2)">
			<stop  offset="0" style="stop-color:#FFF33B"/>
			<stop  offset="0.014" style="stop-color:#FEE72E"/>
			<stop  offset="0.042" style="stop-color:#FED51B"/>
			<stop  offset="0.07" style="stop-color:#FDCA10"/>
			<stop  offset="0.1" style="stop-color:#FDC70C"/>
			<stop  offset="0.4" style="stop-color:#F3903F"/>
			<stop  offset="0.8" style="stop-color:#ED683C"/>
			<stop  offset="1" style="stop-color:#E93E3A"/>
		</linearGradient>
		<rect x="251.523" y="779.423" style="fill:url(#SVGID_17_);" width="132.387" height="33.097"/>
		
			<linearGradient id="SVGID_18_" gradientUnits="userSpaceOnUse" x1="-7.7411" y1="247.8742" x2="1021.1549" y2="247.8742" gradientTransform="matrix(1 0 0 -1 0 994.2)">
			<stop  offset="0" style="stop-color:#FFF33B"/>
			<stop  offset="0.014" style="stop-color:#FEE72E"/>
			<stop  offset="0.042" style="stop-color:#FED51B"/>
			<stop  offset="0.07" style="stop-color:#FDCA10"/>
			<stop  offset="0.1" style="stop-color:#FDC70C"/>
			<stop  offset="0.4" style="stop-color:#F3903F"/>
			<stop  offset="0.8" style="stop-color:#ED683C"/>
			<stop  offset="1" style="stop-color:#E93E3A"/>
		</linearGradient>
		<rect x="201.877" y="729.777" style="fill:url(#SVGID_18_);" width="33.097" height="33.097"/>
		
			<linearGradient id="SVGID_19_" gradientUnits="userSpaceOnUse" x1="-7.7411" y1="247.8742" x2="1021.1549" y2="247.8742" gradientTransform="matrix(1 0 0 -1 0 994.2)">
			<stop  offset="0" style="stop-color:#FFF33B"/>
			<stop  offset="0.014" style="stop-color:#FEE72E"/>
			<stop  offset="0.042" style="stop-color:#FED51B"/>
			<stop  offset="0.07" style="stop-color:#FDCA10"/>
			<stop  offset="0.1" style="stop-color:#FDC70C"/>
			<stop  offset="0.4" style="stop-color:#F3903F"/>
			<stop  offset="0.8" style="stop-color:#ED683C"/>
			<stop  offset="1" style="stop-color:#E93E3A"/>
		</linearGradient>
		<rect x="251.523" y="729.777" style="fill:url(#SVGID_19_);" width="132.387" height="33.097"/>
	</g>
</g>
<g>
</g>
<g>
</g>
<g>
</g>
<g>
</g>
<g>
</g>
<g>
</g>
<g>
</g>
<g>
</g>
<g>
</g>
<g>
</g>
<g>
</g>
<g>
</g>
<g>
</g>
<g>
</g>
<g>
</g>
</svg>
